<svg width="399" height="400" viewBox="0 0 399 400" fill="none" xmlns="http://www.w3.org/2000/svg">
<path d="M382.245 270.898C341.901 365.197 235.406 405.7 151.966 398.794C129.183 396.909 83.3443 393.115 47.5527 359.268C-21.1827 294.267 -10.5968 158.398 55.2026 78.405C63.6761 68.1036 122.329 -0.914553 213.729 0.00918745C280.647 0.685523 327.616 38.4866 333.327 43.1958C340.542 49.1449 356.455 63.2819 370.796 85.7091C404.494 138.406 407.456 211.97 382.245 270.898Z" fill="url(#paint0_linear_3355_244)"/>
<path d="M0.431427 79.2777C-0.602728 77.1675 2.19522 74.9674 4.47248 76.0857C27.5978 87.4401 85.303 124.083 92.5623 209.532C101.67 316.74 135.395 348.904 171.87 364.884C171.87 364.884 126.554 363.813 90.8096 331.524C3.04968 252.249 18.8183 116.797 0.431427 79.2777Z" fill="#7D97F4"/>
<path d="M22.6981 108.319C27.7836 119.323 32.6121 130.422 36.9581 141.687C41.3726 152.926 45.3869 164.299 48.982 175.788C52.5256 187.291 55.8176 198.865 58.5337 210.575C61.3106 222.271 63.5023 234.091 65.6551 245.968C67.883 257.823 70.0495 269.781 73.6366 281.503C77.2038 293.203 82.4526 304.628 89.9942 314.739C91.8775 317.258 93.8229 319.753 95.9243 322.114C97.9741 324.513 100.152 326.826 102.378 329.101C106.86 333.631 111.712 337.888 116.926 341.79C127.38 349.57 139.283 355.87 151.894 360.621C153.222 361.121 154.83 360.555 155.487 359.357C156.132 358.181 155.619 356.833 154.344 356.311L154.335 356.308C151.31 355.074 148.308 353.81 145.389 352.43C143.915 351.76 142.482 351.033 141.033 350.331C139.619 349.58 138.168 348.878 136.785 348.088C131.188 345.013 125.869 341.583 120.892 337.808C110.904 330.312 102.241 321.395 95.0159 311.749C91.4672 306.884 88.3513 301.776 85.7112 296.45C83.0754 291.122 80.9167 285.581 79.1258 279.907C75.5412 268.553 73.2839 256.739 70.9576 244.904C68.613 233.07 66.163 221.198 63.1517 209.464C61.6646 203.593 60.0555 197.753 58.3255 191.948C57.4801 189.04 56.5693 186.151 55.6648 183.26C54.7279 180.379 53.7727 177.503 52.7904 174.637C48.8361 163.179 44.4763 151.854 39.7049 140.69C34.8707 129.549 29.6918 118.543 24.0242 107.758C23.862 107.45 23.4368 107.331 23.074 107.493C22.7217 107.651 22.5587 108.016 22.6981 108.319Z" fill="white"/>
<path d="M105.471 227.717C104.398 231.115 100.203 232.312 97.4679 230.028C82.3756 217.427 42.9261 177.941 43.8254 110.075C44.5849 52.7639 39.5504 21.6157 36.2852 7.63376C35.5947 4.6772 39.08 2.55757 41.3914 4.52621C66.8927 26.2461 144.368 104.599 105.471 227.717Z" fill="#91B3FA"/>
<path d="M100.652 227.946C100.58 227.998 100.503 228.044 100.419 228.082C99.7227 228.406 98.8955 228.103 98.572 227.406C98.2054 226.616 61.8823 147.486 59.3386 67.7522C59.3144 66.985 59.9168 66.3424 60.6849 66.3171C61.453 66.2928 62.0951 66.8953 62.12 67.6634C64.6451 146.817 100.732 225.45 101.096 226.235C101.381 226.849 101.18 227.563 100.652 227.946Z" fill="white"/>
<path d="M76.6387 36.7346C76.2853 93.9468 75.3154 291.288 78.2413 361.171C78.5512 368.574 83.7156 374.443 90.0501 374.59C121.38 375.319 236.214 376.635 287.393 373.352C298.053 372.668 306.384 362.432 306.418 349.941C306.581 289.893 306.395 121.01 299.653 43.7451C298.845 34.4873 292.517 27.2006 284.592 26.3937C250.432 22.9146 135.003 14.8897 90.8057 18.913C82.8349 19.6386 76.6967 27.3792 76.6387 36.7346Z" fill="url(#paint1_linear_3355_244)"/>
<path d="M90.8736 54.0727C89.8813 100.262 86.87 253.917 89.4094 310.682C89.7805 318.978 95.4735 325.606 102.569 325.985C131.78 327.545 231.406 330.455 274.148 325.803C281.844 324.966 287.782 317.583 288.063 308.545C289.525 261.416 293.607 118.321 291.146 62.1927C290.754 53.2386 284.713 46.0119 277.07 45.3249C245.45 42.4827 139.538 36.1806 103.201 39.0484C96.38 39.5863 91.0457 46.0763 90.8736 54.0727Z" fill="url(#paint2_linear_3355_244)"/>
<path d="M163.562 28.4444C163.589 30.1995 164.78 31.6293 166.279 31.6985C175.127 32.1077 195.979 33.0861 203.855 33.5023C205.693 33.5992 207.105 31.6469 206.725 29.54L206.66 29.1805C206.401 27.7424 205.363 26.6731 204.111 26.558C197.807 25.9777 178.788 24.392 166.214 25.1062C164.703 25.1922 163.536 26.6752 163.562 28.4444Z" fill="#7D97F4"/>
<path d="M336.348 349.198C338.806 349.686 352.813 358.022 352.813 348.492C352.813 347.594 352.813 337.848 352.813 337.848C352.813 337.848 335.642 349.057 336.348 349.198Z" fill="url(#paint3_linear_3355_244)"/>
<path d="M344.441 331.307C344.441 331.307 338.285 320.919 337.515 310.724C336.746 300.528 337.996 296.065 336.842 293.103C335.688 290.14 330.077 278.887 329.821 282.269C329.564 285.651 331.616 289.178 331.616 289.178C331.616 289.178 328.057 292.01 328.666 295.27C329.276 298.53 330.526 298.861 330.526 298.861C330.526 298.861 330.719 305.914 331.039 305.914C331.36 305.914 325.396 341.31 332.065 342.08C338.734 342.849 344.12 347.595 344.441 331.307Z" fill="url(#paint4_linear_3355_244)"/>
<path d="M326.849 292.761C326.787 292.293 322.476 282.915 323.248 281.848C324.02 280.782 324.799 279.831 326.009 282.992C327.22 286.154 328.663 294.756 328.198 294.807C327.734 294.858 327.072 294.442 326.849 292.761Z" fill="url(#paint5_linear_3355_244)"/>
<path d="M286.507 394.933C286.507 394.933 283.253 392.231 278.925 392.625C275.908 393.154 272.368 395.822 270.087 397.802C269.689 398.147 269.555 398.697 269.751 399.179C269.946 399.661 270.43 399.973 270.964 399.962C276.622 399.845 287.691 399.509 287.691 398.675C287.691 397.554 286.507 394.933 286.507 394.933Z" fill="url(#paint6_linear_3355_244)"/>
<path d="M288.75 390.172L286.153 395.078C286.153 395.078 280.285 395.559 280.478 393.25C280.67 390.942 282.113 388.152 282.113 388.152L288.75 390.172Z" fill="url(#paint7_linear_3355_244)"/>
<path d="M355.063 393.512C350.994 371.297 348.031 357.032 348.031 357.032C348.031 357.032 302.937 327.94 298.32 335.058C293.703 342.176 280.473 390.749 280.473 390.749L289.294 393.154C289.294 393.154 306.159 370.311 307.698 350.809C312.04 365.032 316.086 399.022 349.491 399.998C351.149 400.046 352.74 399.342 353.822 398.084C354.903 396.825 355.362 395.144 355.063 393.512Z" fill="url(#paint8_linear_3355_244)"/>
<path d="M257.585 392.962L252.199 398.059L247.967 393.827L253.546 387.383L257.585 392.962Z" fill="url(#paint9_linear_3355_244)"/>
<path d="M376.117 282.321L380.615 298.895C380.821 299.655 380.566 300.477 379.975 300.925C377.809 302.564 372.15 305.823 364.386 302.656C363.498 302.293 362.89 301.377 362.813 300.335L361.747 285.896L376.117 282.321Z" fill="url(#paint10_linear_3355_244)"/>
<path d="M349.793 268.953C349.793 268.953 350.675 284.634 356.22 289.906C361.765 295.178 373.666 292.58 378.579 281.234L372.479 260.598L349.793 268.953Z" fill="url(#paint11_linear_3355_244)"/>
<path d="M370.717 274.654C370.252 274.761 369.803 274.43 369.772 273.954C369.68 272.505 369.385 269.629 368.463 267.609C368.463 267.609 369.205 265.624 363.238 268.208C357.271 270.793 348.317 274.572 343.501 271.456C338.806 268.417 334.948 254.813 347.739 258.363C348.226 258.499 348.714 258.143 348.72 257.638C348.745 255.459 349.385 250.493 354.568 249.324C359.418 248.23 361.821 250.583 362.777 251.96C363.058 252.366 363.641 252.408 363.973 252.043C365.545 250.317 369.722 246.714 375.165 249.688C379.649 252.139 380.128 255.07 379.899 256.851C379.824 257.429 380.379 257.871 380.926 257.674C382.409 257.138 384.733 256.993 386.696 259.935C389.411 264.002 384.786 266.933 383.409 267.688C383.184 267.811 383.031 268.035 383.008 268.291C382.827 270.27 382.133 279.091 377.388 283.594C376.977 283.984 375.943 283.592 375.769 283.053L373.113 274.827C372.99 274.445 372.595 274.221 372.204 274.311L370.717 274.654Z" fill="url(#paint12_linear_3355_244)"/>
<path d="M370.061 275.779C370.061 275.779 372.803 267.662 375.666 270.617C378.528 273.573 374.125 279.165 370.486 279.992L370.061 275.779Z" fill="url(#paint13_linear_3355_244)"/>
<path d="M349.793 326.882C349.793 326.882 329.244 335.539 325.396 331.114C321.549 326.69 323.665 301.878 323.665 301.878L315.008 299.565C315.008 299.565 304.364 343.362 322.447 349.902C335.574 354.65 360.6 339.194 360.6 339.194L349.793 326.882Z" fill="url(#paint14_linear_3355_244)"/>
<path d="M369.117 296.938C365.803 297.666 362.172 300.83 359.331 303.866C356.088 307.332 353.914 311.676 353.105 316.353C353.079 316.507 353.052 316.66 353.026 316.815C345.874 324.653 339.575 329.728 335.337 331.604C342.776 342.168 346.8 346.182 346.8 346.182C346.8 346.182 347.658 345.997 349.097 345.626C347.699 358.232 346.942 367.992 346.942 367.992C346.942 367.992 361.471 382.414 379.068 386.518C395.093 374.72 397.545 340.967 397.545 340.967C398.8 300.933 380.31 294.477 369.117 296.938Z" fill="url(#paint15_linear_3355_244)"/>
<path d="M379.067 386.516C379.067 386.516 371.854 407.966 336.248 395.943C318.984 390.113 294.809 356.314 294.809 356.314C294.809 356.314 288.846 372.666 257.682 394.596L250.756 388.376C250.756 388.376 282.305 333.999 298.464 339.642C314.623 345.285 384.005 372.602 379.067 386.516Z" fill="url(#paint16_linear_3355_244)"/>
<path d="M254.826 395.573C253.509 395.588 247.967 393.153 247.967 393.153L242.805 394.532C238.306 393.84 234.442 395.372 231.838 396.929C231.269 397.269 230.996 397.946 231.167 398.586C231.339 399.227 231.914 399.676 232.577 399.687C237.671 399.771 246.038 399.856 250.275 399.603C256.624 399.223 257.585 399.405 254.826 395.573Z" fill="url(#paint17_linear_3355_244)"/>
<path d="M356.201 343.741C356.098 343.741 356.006 343.671 355.98 343.568C355.95 343.446 356.024 343.322 356.147 343.292C356.364 343.239 377.929 337.754 381.811 321.586C381.84 321.464 381.97 321.389 382.085 321.417C382.207 321.447 382.282 321.569 382.253 321.692C378.306 338.131 356.475 343.68 356.255 343.734C356.237 343.739 356.218 343.741 356.201 343.741Z" fill="url(#paint18_linear_3355_244)"/>
<path d="M310.434 279.517C310.285 279.137 310.314 278.709 310.512 278.351C310.709 277.994 311.056 277.742 311.458 277.666L321.486 275.752C321.876 275.678 322.259 275.908 322.376 276.287L330.09 301.154C330.123 301.261 330.112 301.377 330.06 301.476C330.007 301.575 329.917 301.649 329.809 301.682L321.426 304.198C320.739 304.404 320.009 304.048 319.748 303.38L310.434 279.517Z" fill="url(#paint19_linear_3355_244)"/>
<path d="M313.597 279.763C313.516 279.546 313.537 279.303 313.653 279.102C313.769 278.901 313.968 278.762 314.198 278.723L320.855 277.6C321.24 277.535 321.613 277.765 321.729 278.138L328.279 299.322C328.313 299.433 328.3 299.554 328.243 299.655C328.185 299.756 328.089 299.829 327.975 299.856L322.011 301.291C321.804 301.34 321.592 301.228 321.518 301.028L313.597 279.763Z" fill="#91B3FA"/>
<path d="M316.808 277.713C316.824 277.791 316.958 277.829 317.107 277.797L319.295 277.336C319.444 277.305 319.55 277.216 319.534 277.138L319.518 277.062C319.502 276.984 319.368 276.947 319.22 276.978L317.031 277.439C316.883 277.471 316.776 277.559 316.792 277.637L316.808 277.713Z" fill="url(#paint20_linear_3355_244)"/>
<path d="M314.897 300.043C314.768 298.94 311.065 291.918 312.507 289.225C313.95 286.532 314.527 281.915 315.922 283.214C317.317 284.512 315.585 289.033 316.211 290.38C316.836 291.726 319.237 295.148 319.551 297.813C319.866 300.479 321.645 304.278 317.894 304.807C314.143 305.336 314.897 300.043 314.897 300.043Z" fill="url(#paint21_linear_3355_244)"/>
<path d="M354.54 315.953C354.495 315.953 354.45 315.94 354.411 315.913C354.307 315.841 354.281 315.7 354.352 315.596C354.777 314.978 364.81 300.459 370.595 302.915C370.711 302.965 370.765 303.098 370.716 303.214C370.668 303.328 370.536 303.385 370.418 303.334C364.979 301.03 354.829 315.705 354.727 315.854C354.684 315.918 354.612 315.953 354.54 315.953Z" fill="url(#paint22_linear_3355_244)"/>
<path d="M331.985 302.39C331.914 302.39 331.845 302.357 331.801 302.296C330.044 299.861 331.153 297.084 331.626 295.898C331.685 295.751 331.751 295.587 331.772 295.51C331.558 295.029 330.72 292.563 330.975 291.032C331.034 290.677 331.218 290.569 331.362 290.541C332.17 290.384 333.869 292.995 334.567 294.124C334.633 294.23 334.6 294.371 334.494 294.437C334.388 294.503 334.247 294.471 334.18 294.363C333.04 292.522 331.802 290.987 331.457 290.987H331.454C331.456 290.993 331.438 291.026 331.424 291.106C331.179 292.573 332.071 295.122 332.199 295.349C332.279 295.49 332.221 295.635 332.049 296.067C331.604 297.183 330.56 299.797 332.169 302.029C332.242 302.131 332.22 302.273 332.118 302.347C332.078 302.376 332.031 302.39 331.985 302.39Z" fill="#F8A570"/>
<path d="M165.91 258.606C165.91 252.391 167.562 247.57 170.87 244.143C174.176 240.718 179.097 239.004 185.631 239.004C192.164 239.004 197.105 240.698 200.452 244.084C203.799 247.472 205.472 252.312 205.472 258.606C205.472 264.821 203.739 269.643 200.272 273.068C196.806 276.493 191.925 278.208 185.631 278.208C179.177 278.208 174.276 276.475 170.93 273.008C167.583 269.542 165.91 264.742 165.91 258.606ZM198.898 218.685H172.723L166.866 100.237H204.994L198.898 218.685Z" fill="white"/>
<path d="M197.596 95.0883C200.547 100.342 201.366 106.489 202.087 112.472C202.808 118.454 203.531 124.597 206.324 129.936C209.117 135.275 214.501 139.71 220.524 139.546C228.339 139.333 234.26 131.857 241.988 130.675C250.42 129.385 258.163 136.045 262.27 143.522C266.378 150.999 268.189 159.584 272.47 166.963C279.773 179.551 293.376 187.152 307.067 192.084C319.144 196.434 332.008 199.2 344.798 198.105C357.587 197.011 370.33 191.747 378.778 182.083C386.604 173.132 390.214 161.126 391.102 149.27C392.685 128.157 385.801 106.229 371.235 90.8636C356.668 75.4984 334.339 67.3954 313.542 71.3611C308.54 72.3148 303.58 73.9665 299.468 76.969C294.253 80.7765 290.779 86.4411 286.674 91.4251C284.919 93.5555 282.896 95.6656 280.246 96.4395C278.243 97.0248 276.1 96.7775 274.039 96.4524C268.969 95.6523 263.935 94.4054 258.802 94.3573C253.669 94.3094 248.267 95.6293 244.626 99.2468C240.468 103.378 239.283 109.733 235.419 114.14C230.522 119.723 221.371 120.94 215.185 116.83C204.693 109.859 205.611 92.9092 195.688 85.1483C193.168 83.1772 179.487 80.2364 182.422 83.8135C183.577 85.2219 189.158 86.2959 191.078 87.7201C193.729 89.6875 195.978 92.2078 197.596 95.0883Z" fill="#BDD0FB"/>
<path d="M283.34 125.033C283.34 136.916 288.56 145.935 296.954 151.915C299.787 153.933 301.488 157.179 301.488 160.657V174.418C301.488 178.464 304.768 181.745 308.815 181.745H347.093C351.139 181.745 354.419 178.464 354.419 174.418V160.657C354.419 157.179 356.121 153.933 358.954 151.915C367.347 145.935 372.567 136.916 372.567 125.033C372.567 101.785 352.593 81.9316 327.954 81.9316C303.314 81.9316 283.34 101.785 283.34 125.033ZM337.532 126.293C337.532 120.446 340.255 115.707 346.102 115.707C351.948 115.707 358.704 120.446 358.704 126.293C358.704 132.14 353.965 136.879 348.118 136.879C342.271 136.879 337.532 132.14 337.532 126.293ZM330.395 142C332.804 143.116 337.991 145.853 337.649 148.591C337.233 151.919 330.586 149.017 329.371 142.8C329.257 142.217 329.856 141.75 330.395 142ZM325.512 142C326.051 141.75 326.65 142.217 326.536 142.8C325.322 149.017 318.674 151.919 318.258 148.591C317.916 145.853 323.103 143.116 325.512 142ZM297.203 126.797C297.203 120.95 303.959 116.211 309.806 116.211C315.652 116.211 318.376 120.95 318.376 126.797C318.376 132.644 313.636 137.383 307.79 137.383C301.943 137.383 297.203 132.644 297.203 126.797Z" fill="url(#paint23_linear_3355_244)"/>
<path d="M343.717 179.981C343.995 179.981 344.221 179.755 344.221 179.477V162.337C344.221 162.059 343.995 161.833 343.717 161.833C343.438 161.833 343.212 162.059 343.212 162.337V179.477C343.212 179.755 343.438 179.981 343.717 179.981Z" fill="url(#paint24_linear_3355_244)"/>
<path d="M337.416 179.981C337.694 179.981 337.92 179.755 337.92 179.477V162.337C337.92 162.059 337.694 161.833 337.416 161.833C337.137 161.833 336.912 162.059 336.912 162.337V179.477C336.912 179.755 337.137 179.981 337.416 179.981Z" fill="url(#paint25_linear_3355_244)"/>
<path d="M331.114 179.981C331.392 179.981 331.618 179.755 331.618 179.477V162.337C331.618 162.059 331.392 161.833 331.114 161.833C330.836 161.833 330.61 162.059 330.61 162.337V179.477C330.61 179.755 330.836 179.981 331.114 179.981Z" fill="url(#paint26_linear_3355_244)"/>
<path d="M324.813 179.981C325.091 179.981 325.317 179.755 325.317 179.477V162.337C325.317 162.059 325.091 161.833 324.813 161.833C324.534 161.833 324.309 162.059 324.309 162.337V179.477C324.309 179.755 324.534 179.981 324.813 179.981Z" fill="url(#paint27_linear_3355_244)"/>
<path d="M318.511 179.981C318.789 179.981 319.015 179.755 319.015 179.477V162.337C319.015 162.059 318.789 161.833 318.511 161.833C318.233 161.833 318.007 162.059 318.007 162.337V179.477C318.007 179.755 318.233 179.981 318.511 179.981Z" fill="url(#paint28_linear_3355_244)"/>
<path d="M312.21 179.981C312.489 179.981 312.714 179.755 312.714 179.477V162.337C312.714 162.059 312.489 161.833 312.21 161.833C311.932 161.833 311.706 162.059 311.706 162.337V179.477C311.706 179.755 311.932 179.981 312.21 179.981Z" fill="url(#paint29_linear_3355_244)"/>
<path d="M66.0876 148.445C92.8161 148.445 114.484 126.777 114.484 100.049C114.484 73.32 92.8161 51.6523 66.0876 51.6523C39.3591 51.6523 17.6914 73.32 17.6914 100.049C17.6914 126.777 39.3591 148.445 66.0876 148.445Z" fill="url(#paint30_linear_3355_244)"/>
<path d="M97.7246 134.983L124.064 134.101L107.427 118.231L97.7246 134.983Z" fill="url(#paint31_linear_3355_244)"/>
<path d="M66.264 75.4287C73.5662 94.1231 78.3529 107.943 78.4184 109.807C78.4321 110.202 78.3866 110.739 78.4068 111.622C78.6277 121.291 83.1916 125.831 81.2019 128.738C80.3189 130.027 78.6451 130.267 77.2523 130.466C70.5496 131.424 63.1385 124.411 61.9088 117.331C61.7175 116.23 61.7099 115.323 61.7208 114.828C61.2915 114.98 60.96 115.101 60.6258 115.216C57.8318 116.172 55.0838 117.307 52.2331 118.045C46.5316 119.521 40.6272 116.4 38.5261 110.899C37.4001 107.951 36.2022 104.992 35.5014 101.931C34.3812 97.0372 36.0511 92.6828 38.9633 88.7697C40.6526 86.4997 42.6695 84.6335 45.0462 83.2535C46.4253 82.4529 47.5686 82.0238 48.1667 81.8024C54.6564 79.3995 64.843 75.9145 66.264 75.4287Z" fill="url(#paint32_linear_3355_244)"/>
<path d="M82.7082 107.385C78.7206 96.14 74.7758 85.016 70.8032 73.8126C73.1982 72.9634 75.5343 72.0644 77.9189 71.3209C79.0174 70.9784 80.0534 71.7213 80.5035 72.9479C81.299 75.116 82.0613 77.2962 82.8328 79.4731C85.4312 86.8038 88.0299 94.1345 90.6234 101.467C91.3133 103.417 90.8026 104.505 88.8799 105.195C86.8432 105.926 84.8014 106.643 82.7082 107.385Z" fill="url(#paint33_linear_3355_244)"/>
<path d="M80.4503 338.198C109.737 338.198 133.479 314.457 133.479 285.17C133.479 255.883 109.737 232.142 80.4503 232.142C51.1635 232.142 27.4219 255.883 27.4219 285.17C27.4219 314.457 51.1635 338.198 80.4503 338.198Z" fill="#BDD0FB"/>
<path d="M128.065 270.031L145.056 249.453L121.591 254.014L128.065 270.031Z" fill="#BDD0FB"/>
<path d="M90.7309 318.763C93.1707 315.064 95.4449 311.663 97.6709 308.231C101.856 301.777 106.138 295.377 109.026 288.188C112.132 280.459 112.228 272.866 107.899 265.517C101.349 254.398 87.3365 253.452 79.5066 263.559C75.5565 268.657 75.0563 274.869 73.582 280.849C78.7979 282.382 83.8047 283.842 88.8044 285.326C92.2825 286.359 93.014 289.053 90.5406 291.698C87.8959 294.526 85.2018 297.309 82.6167 300.19C82.2329 300.618 82.0147 301.633 82.2525 302.113C84.9541 307.566 87.7592 312.969 90.7309 318.763Z" fill="url(#paint34_linear_3355_244)"/>
<path d="M83.2362 319.122C80.501 313.739 77.7651 308.357 75.0308 302.974C73.6843 300.323 73.8568 299.366 75.9455 297.197C78.0035 295.061 80.0236 292.887 82.2201 290.561C81.3765 290.284 80.7849 290.075 80.1839 289.897C76.6389 288.847 73.0884 287.816 69.5463 286.758C66.5469 285.861 65.7806 284.574 66.4199 281.514C67.3082 277.262 68.1851 273.008 69.1374 268.771C69.3714 267.73 69.1571 267.242 68.1545 266.756C58.1395 261.902 46.863 267.278 44.4858 278.25C42.6471 286.736 45.1436 294.092 51.3216 300.045C60.4493 308.839 72.2293 313.348 83.2362 319.122Z" fill="url(#paint35_linear_3355_244)"/>
<defs>
<linearGradient id="paint0_linear_3355_244" x1="423.161" y1="451.493" x2="129.553" y2="134.583" gradientUnits="userSpaceOnUse">
<stop stop-color="#DAE3FE"/>
<stop offset="1" stop-color="#E9EFFD"/>
</linearGradient>
<linearGradient id="paint1_linear_3355_244" x1="299.381" y1="417.487" x2="73.7341" y2="-22.2069" gradientUnits="userSpaceOnUse">
<stop stop-color="#09005D"/>
<stop offset="1" stop-color="#1A0F91"/>
</linearGradient>
<linearGradient id="paint2_linear_3355_244" x1="486.998" y1="-349.078" x2="299.731" y2="-15.0871" gradientUnits="userSpaceOnUse">
<stop stop-color="#FEBBBA"/>
<stop offset="1" stop-color="#FF928E"/>
</linearGradient>
<linearGradient id="paint3_linear_3355_244" x1="350.045" y1="341.434" x2="338.792" y2="358.555" gradientUnits="userSpaceOnUse">
<stop stop-color="#E1473D"/>
<stop offset="1" stop-color="#E9605A"/>
</linearGradient>
<linearGradient id="paint4_linear_3355_244" x1="335.824" y1="309.339" x2="336.786" y2="334.925" gradientUnits="userSpaceOnUse">
<stop stop-color="#FEBBBA"/>
<stop offset="1" stop-color="#FF928E"/>
</linearGradient>
<linearGradient id="paint5_linear_3355_244" x1="329.196" y1="282.428" x2="317.389" y2="302.543" gradientUnits="userSpaceOnUse">
<stop stop-color="#FEBBBA"/>
<stop offset="1" stop-color="#FF928E"/>
</linearGradient>
<linearGradient id="paint6_linear_3355_244" x1="285.183" y1="390.326" x2="271.988" y2="406.916" gradientUnits="userSpaceOnUse">
<stop stop-color="#09005D"/>
<stop offset="1" stop-color="#1A0F91"/>
</linearGradient>
<linearGradient id="paint7_linear_3355_244" x1="287.63" y1="387.218" x2="279.967" y2="396.853" gradientUnits="userSpaceOnUse">
<stop stop-color="#FEBBBA"/>
<stop offset="1" stop-color="#FF928E"/>
</linearGradient>
<linearGradient id="paint8_linear_3355_244" x1="372.87" y1="148.229" x2="346.808" y2="264.058" gradientUnits="userSpaceOnUse">
<stop stop-color="#4F52FF"/>
<stop offset="1" stop-color="#4042E2"/>
</linearGradient>
<linearGradient id="paint9_linear_3355_244" x1="250.625" y1="385.847" x2="255.441" y2="402.742" gradientUnits="userSpaceOnUse">
<stop stop-color="#FEBBBA"/>
<stop offset="1" stop-color="#FF928E"/>
</linearGradient>
<linearGradient id="paint10_linear_3355_244" x1="372.359" y1="305.323" x2="370.039" y2="284.438" gradientUnits="userSpaceOnUse">
<stop stop-color="#FEBBBA"/>
<stop offset="1" stop-color="#FF928E"/>
</linearGradient>
<linearGradient id="paint11_linear_3355_244" x1="359.688" y1="286.373" x2="371.484" y2="256.795" gradientUnits="userSpaceOnUse">
<stop stop-color="#FEBBBA"/>
<stop offset="1" stop-color="#FF928E"/>
</linearGradient>
<linearGradient id="paint12_linear_3355_244" x1="371.22" y1="232.359" x2="358.473" y2="280.536" gradientUnits="userSpaceOnUse">
<stop stop-color="#09005D"/>
<stop offset="1" stop-color="#1A0F91"/>
</linearGradient>
<linearGradient id="paint13_linear_3355_244" x1="366.989" y1="290.654" x2="378.785" y2="261.076" gradientUnits="userSpaceOnUse">
<stop stop-color="#FEBBBA"/>
<stop offset="1" stop-color="#FF928E"/>
</linearGradient>
<linearGradient id="paint14_linear_3355_244" x1="321.591" y1="284.74" x2="347.92" y2="377.111" gradientUnits="userSpaceOnUse">
<stop stop-color="#FEBBBA"/>
<stop offset="1" stop-color="#FF928E"/>
</linearGradient>
<linearGradient id="paint15_linear_3355_244" x1="484.108" y1="160.135" x2="421.849" y2="258.59" gradientUnits="userSpaceOnUse">
<stop stop-color="#FF928E"/>
<stop offset="1" stop-color="#FE7062"/>
</linearGradient>
<linearGradient id="paint16_linear_3355_244" x1="306.99" y1="358.117" x2="344.049" y2="488.132" gradientUnits="userSpaceOnUse">
<stop stop-color="#4F52FF"/>
<stop offset="1" stop-color="#4042E2"/>
</linearGradient>
<linearGradient id="paint17_linear_3355_244" x1="241.693" y1="391.227" x2="246.184" y2="406.984" gradientUnits="userSpaceOnUse">
<stop stop-color="#09005D"/>
<stop offset="1" stop-color="#1A0F91"/>
</linearGradient>
<linearGradient id="paint18_linear_3355_244" x1="393.146" y1="228.866" x2="356.465" y2="387.174" gradientUnits="userSpaceOnUse">
<stop stop-color="#E1473D"/>
<stop offset="1" stop-color="#E9605A"/>
</linearGradient>
<linearGradient id="paint19_linear_3355_244" x1="305.963" y1="280.793" x2="361.22" y2="314.067" gradientUnits="userSpaceOnUse">
<stop stop-color="#09005D"/>
<stop offset="1" stop-color="#1A0F91"/>
</linearGradient>
<linearGradient id="paint20_linear_3355_244" x1="317.403" y1="277.039" x2="318.828" y2="279.29" gradientUnits="userSpaceOnUse">
<stop stop-color="#8D55D1"/>
<stop offset="0.9964" stop-color="#1C2873"/>
</linearGradient>
<linearGradient id="paint21_linear_3355_244" x1="316.7" y1="301.416" x2="321.702" y2="351.432" gradientUnits="userSpaceOnUse">
<stop stop-color="#FEBBBA"/>
<stop offset="1" stop-color="#FF928E"/>
</linearGradient>
<linearGradient id="paint22_linear_3355_244" x1="395.855" y1="90.651" x2="342.763" y2="439.121" gradientUnits="userSpaceOnUse">
<stop stop-color="#E1473D"/>
<stop offset="1" stop-color="#E9605A"/>
</linearGradient>
<linearGradient id="paint23_linear_3355_244" x1="336.406" y1="101.696" x2="397.22" y2="-63.3687" gradientUnits="userSpaceOnUse">
<stop stop-color="#09005D"/>
<stop offset="1" stop-color="#1A0F91"/>
</linearGradient>
<linearGradient id="paint24_linear_3355_244" x1="-845.956" y1="-1377.9" x2="-961.062" y2="-1527.75" gradientUnits="userSpaceOnUse">
<stop stop-color="#4F52FF"/>
<stop offset="1" stop-color="#4042E2"/>
</linearGradient>
<linearGradient id="paint25_linear_3355_244" x1="-849.919" y1="-1374.85" x2="-965.024" y2="-1524.71" gradientUnits="userSpaceOnUse">
<stop stop-color="#4F52FF"/>
<stop offset="1" stop-color="#4042E2"/>
</linearGradient>
<linearGradient id="paint26_linear_3355_244" x1="-853.882" y1="-1371.81" x2="-968.988" y2="-1521.67" gradientUnits="userSpaceOnUse">
<stop stop-color="#4F52FF"/>
<stop offset="1" stop-color="#4042E2"/>
</linearGradient>
<linearGradient id="paint27_linear_3355_244" x1="-857.846" y1="-1368.77" x2="-972.951" y2="-1518.62" gradientUnits="userSpaceOnUse">
<stop stop-color="#4F52FF"/>
<stop offset="1" stop-color="#4042E2"/>
</linearGradient>
<linearGradient id="paint28_linear_3355_244" x1="-861.809" y1="-1365.72" x2="-976.915" y2="-1515.58" gradientUnits="userSpaceOnUse">
<stop stop-color="#4F52FF"/>
<stop offset="1" stop-color="#4042E2"/>
</linearGradient>
<linearGradient id="paint29_linear_3355_244" x1="-865.732" y1="-1362.68" x2="-980.838" y2="-1512.53" gradientUnits="userSpaceOnUse">
<stop stop-color="#4F52FF"/>
<stop offset="1" stop-color="#4042E2"/>
</linearGradient>
<linearGradient id="paint30_linear_3355_244" x1="17.6915" y1="100.049" x2="114.484" y2="100.049" gradientUnits="userSpaceOnUse">
<stop stop-color="#DAE3FE"/>
<stop offset="1" stop-color="#E9EFFD"/>
</linearGradient>
<linearGradient id="paint31_linear_3355_244" x1="97.7246" y1="126.607" x2="124.064" y2="126.607" gradientUnits="userSpaceOnUse">
<stop stop-color="#DAE3FE"/>
<stop offset="1" stop-color="#E9EFFD"/>
</linearGradient>
<linearGradient id="paint32_linear_3355_244" x1="124.006" y1="-40.3005" x2="-47.8158" y2="358.365" gradientUnits="userSpaceOnUse">
<stop stop-color="#09005D"/>
<stop offset="1" stop-color="#1A0F91"/>
</linearGradient>
<linearGradient id="paint33_linear_3355_244" x1="134.469" y1="-35.791" x2="-37.3529" y2="362.875" gradientUnits="userSpaceOnUse">
<stop stop-color="#09005D"/>
<stop offset="1" stop-color="#1A0F91"/>
</linearGradient>
<linearGradient id="paint34_linear_3355_244" x1="162.71" y1="96.8826" x2="30.4653" y2="440.526" gradientUnits="userSpaceOnUse">
<stop stop-color="#09005D"/>
<stop offset="1" stop-color="#1A0F91"/>
</linearGradient>
<linearGradient id="paint35_linear_3355_244" x1="144.152" y1="89.7412" x2="11.9066" y2="433.385" gradientUnits="userSpaceOnUse">
<stop stop-color="#09005D"/>
<stop offset="1" stop-color="#1A0F91"/>
</linearGradient>
</defs>
</svg>
