<svg width="417" height="400" viewBox="0 0 417 400" fill="none" xmlns="http://www.w3.org/2000/svg">
<path d="M303.863 94.3508L0 177.523L60.896 400.002L364.759 316.829L303.863 94.3508Z" fill="#A2B2D6"/>
<path d="M305.853 86.1457L1.98926 169.318L62.8852 391.796L366.749 308.624L305.853 86.1457Z" fill="#F5F5F5"/>
<path d="M278.376 114.796L172.299 143.831L173.942 149.835L280.019 120.8L278.376 114.796Z" fill="#949AAA"/>
<path d="M282.178 128.69L192.095 153.348L192.911 156.332L282.995 131.674L282.178 128.69Z" fill="#949AAA"/>
<path d="M284.531 137.284L178.453 166.319L179.27 169.304L285.347 140.269L284.531 137.284Z" fill="#949AAA"/>
<path d="M286.884 145.88L180.807 174.915L181.624 177.9L287.701 148.864L286.884 145.88Z" fill="#949AAA"/>
<path d="M289.235 154.475L183.158 183.51L183.975 186.494L290.052 157.459L289.235 154.475Z" fill="#949AAA"/>
<path d="M291.589 163.07L185.512 192.105L186.328 195.089L292.406 166.054L291.589 163.07Z" fill="#949AAA"/>
<path d="M294.062 172.107L187.985 201.142L188.802 204.127L294.879 175.092L294.062 172.107Z" fill="#949AAA"/>
<path d="M296.414 180.703L190.337 209.738L191.154 212.722L297.23 183.687L296.414 180.703Z" fill="#949AAA"/>
<path d="M271.514 196.757L192.69 218.332L193.507 221.316L272.331 199.741L271.514 196.757Z" fill="#949AAA"/>
<path d="M103.363 337.117L95.5625 339.252L97.6979 347.053L105.498 344.918L103.363 337.117Z" fill="#54BAE2"/>
<path d="M128.631 332.788L110.965 337.623L111.782 340.607L129.448 335.771L128.631 332.788Z" fill="#949AAA"/>
<path d="M106.849 349.736L99.0488 351.871L101.184 359.672L108.984 357.538L106.849 349.736Z" fill="#F44D3B"/>
<path d="M154.7 339.235L114.423 350.26L115.24 353.244L155.517 342.219L154.7 339.235Z" fill="#949AAA"/>
<path d="M146.413 316.209L129.644 320.799L130.46 323.783L147.23 319.193L146.413 316.209Z" fill="#5A5A7A"/>
<path d="M69.7737 274.943L67.127 275.668L81.0454 326.498L83.6921 325.774L69.7737 274.943Z" fill="#54BAE2"/>
<path d="M78.0662 294.874L75.418 295.6L83.6819 325.78L86.3302 325.055L78.0662 294.874Z" fill="#F44D3B"/>
<path d="M81.4681 280.273L78.8193 280.998L90.5584 323.886L93.2072 323.161L81.4681 280.273Z" fill="#54BAE2"/>
<path d="M85.878 285.907L83.2314 286.631L93.2238 323.168L95.8703 322.445L85.878 285.907Z" fill="#F44D3B"/>
<path d="M96.2281 296.727L93.5801 297.451L100.094 321.281L102.743 320.557L96.2281 296.727Z" fill="#54BAE2"/>
<path d="M97.4576 290.845L94.8096 291.57L102.749 320.54L105.397 319.814L97.4576 290.845Z" fill="#F44D3B"/>
<path d="M103.001 284.07L100.354 284.795L109.624 318.665L112.272 317.941L103.001 284.07Z" fill="#54BAE2"/>
<path d="M112.407 308.031L109.761 308.756L112.274 317.939L114.921 317.215L112.407 308.031Z" fill="#F44D3B"/>
<path d="M109.471 270.336L106.824 271.061L119.143 316.066L121.79 315.342L109.471 270.336Z" fill="#54BAE2"/>
<path d="M110.682 264.319L108.035 265.044L121.808 315.344L124.456 314.619L110.682 264.319Z" fill="#F44D3B"/>
<path d="M124.072 286.251L121.425 286.976L128.668 313.449L131.316 312.725L124.072 286.251Z" fill="#54BAE2"/>
<path d="M121.103 264.879L118.456 265.603L131.345 312.731L133.991 312.007L121.103 264.879Z" fill="#F44D3B"/>
<path d="M131.754 276.762L129.106 277.487L138.244 310.845L140.892 310.12L131.754 276.762Z" fill="#54BAE2"/>
<path d="M135.002 278.323L132.354 279.048L140.871 310.138L143.518 309.412L135.002 278.323Z" fill="#F44D3B"/>
<path d="M144.887 287.406L142.238 288.131L147.741 308.234L150.39 307.509L144.887 287.406Z" fill="#54BAE2"/>
<path d="M148.961 291.785L146.312 292.51L150.419 307.519L153.067 306.794L148.961 291.785Z" fill="#F44D3B"/>
<path d="M156.878 293.796L154.231 294.521L157.276 305.64L159.923 304.915L156.878 293.796Z" fill="#75CF33"/>
<path d="M152.591 267.643L149.943 268.368L159.951 304.902L162.598 304.177L152.591 267.643Z" fill="#F2274D"/>
<path d="M158.441 262.059L155.794 262.784L166.813 303.025L169.459 302.3L158.441 262.059Z" fill="#75CF33"/>
<path d="M157.624 248.63L154.977 249.354L169.458 302.306L172.105 301.582L157.624 248.63Z" fill="#F2274D"/>
<path d="M172.191 274.802L169.544 275.527L176.361 300.413L179.007 299.688L172.191 274.802Z" fill="#75CF33"/>
<path d="M175.886 277.914L173.238 278.639L178.995 299.669L181.642 298.944L175.886 277.914Z" fill="#F2274D"/>
<path d="M184.448 282.257L181.802 282.981L185.86 297.806L188.506 297.082L184.448 282.257Z" fill="#75CF33"/>
<path d="M188.882 287.942L186.233 288.667L188.537 297.088L191.186 296.363L188.882 287.942Z" fill="#F2274D"/>
<path d="M70.7335 228.26L62.9336 230.395L65.0688 238.195L72.8687 236.06L70.7335 228.26Z" fill="#317AB0"/>
<path d="M128.594 215.012L78.3232 228.772L79.14 231.756L129.411 217.996L128.594 215.012Z" fill="#949AAA"/>
<path d="M74.1988 240.89L66.3984 243.025L68.5335 250.826L76.3339 248.691L74.1988 240.89Z" fill="#F2274D"/>
<path d="M99.4495 236.573L81.7812 241.409L82.598 244.393L100.266 239.557L99.4495 236.573Z" fill="#949AAA"/>
<path d="M77.6475 253.537L69.8477 255.672L71.9827 263.472L79.7826 261.337L77.6475 253.537Z" fill="#FFD121"/>
<path d="M125.519 243.022L85.2412 254.047L86.058 257.031L126.335 246.006L125.519 243.022Z" fill="#949AAA"/>
<path d="M116.05 205.252L99.2812 209.842L100.098 212.826L116.867 208.236L116.05 205.252Z" fill="#949AAA"/>
<path d="M78.3076 201.31L90.1554 186.603L107.022 193.451L128.47 155.831L152.291 178.413L79.5753 202.727L78.3076 201.31Z" fill="#F2274D"/>
<path d="M158.324 171.47L147.572 161.186L121.553 178.89L102.096 174.719L89.9865 199.093L65.3934 196.027L58.9189 211.029L159.602 182.585L158.324 171.47Z" fill="#FFD121"/>
<path d="M47.3965 218.15L57.0438 200.958L67.0454 205.276L76.4312 191.242L91.2077 196.898L113.363 172.204L133.445 176.951L158.541 162.592L164.942 185.973L47.3965 218.15Z" fill="#317AB0"/>
<path d="M233.98 301.36L226.18 303.495L228.315 311.296L236.115 309.161L233.98 301.36Z" fill="#6B2D6E"/>
<path d="M291.842 288.114L241.572 301.874L242.389 304.858L292.659 291.098L291.842 288.114Z" fill="#949AAA"/>
<path d="M237.442 313.995L229.641 316.13L231.776 323.931L239.577 321.796L237.442 313.995Z" fill="#F2274D"/>
<path d="M262.696 309.681L245.027 314.517L245.844 317.501L263.512 312.664L262.696 309.681Z" fill="#949AAA"/>
<path d="M273.648 279.902L256.88 284.492L257.697 287.476L274.465 282.886L273.648 279.902Z" fill="#949AAA"/>
<path d="M307.83 246.916C308.119 247.974 307.496 249.065 306.441 249.354C305.383 249.644 304.291 249.022 304 247.964C303.712 246.906 304.335 245.814 305.392 245.525C306.449 245.236 307.541 245.858 307.83 246.916Z" fill="#F2274D"/>
<path d="M287.589 239.498C287.878 240.555 287.254 241.647 286.199 241.935C285.142 242.225 284.048 241.603 283.758 240.546C283.469 239.489 284.094 238.396 285.151 238.107C286.207 237.818 287.299 238.441 287.589 239.498Z" fill="#F2274D"/>
<path d="M268.416 257.267C268.705 258.325 268.082 259.417 267.026 259.706C265.969 259.995 264.876 259.372 264.586 258.316C264.298 257.258 264.919 256.165 265.977 255.876C267.035 255.587 268.127 256.21 268.416 257.267Z" fill="#F2274D"/>
<path d="M252.118 255.468C252.408 256.526 251.785 257.617 250.726 257.906C249.67 258.196 248.577 257.573 248.288 256.516C247.998 255.459 248.622 254.367 249.679 254.077C250.736 253.789 251.828 254.412 252.118 255.468Z" fill="#F2274D"/>
<path d="M247.287 269.825C247.575 270.883 246.954 271.975 245.896 272.265C244.84 272.554 243.747 271.931 243.457 270.874C243.167 269.816 243.791 268.726 244.849 268.436C245.905 268.147 246.997 268.768 247.287 269.825Z" fill="#F2274D"/>
<path d="M224.193 270.659C224.481 271.716 223.858 272.808 222.801 273.097C221.745 273.387 220.653 272.765 220.363 271.707C220.073 270.65 220.696 269.558 221.753 269.269C222.81 268.98 223.904 269.602 224.193 270.659Z" fill="#F2274D"/>
<path d="M211.042 284.225C211.331 285.282 210.709 286.373 209.651 286.662C208.594 286.951 207.502 286.33 207.213 285.274C206.923 284.216 207.546 283.124 208.603 282.835C209.66 282.545 210.753 283.167 211.042 284.225Z" fill="#6B2D6E"/>
<path d="M219.128 245.147C219.418 246.205 218.794 247.296 217.736 247.586C216.68 247.875 215.587 247.253 215.297 246.195C215.009 245.139 215.631 244.046 216.688 243.756C217.746 243.467 218.839 244.09 219.128 245.147Z" fill="#6B2D6E"/>
<path d="M240.876 258.546C241.165 259.603 240.544 260.694 239.488 260.983C238.429 261.273 237.338 260.65 237.049 259.593C236.759 258.536 237.381 257.444 238.44 257.154C239.496 256.865 240.586 257.488 240.876 258.546Z" fill="#6B2D6E"/>
<path d="M253.511 235.603C253.801 236.661 253.177 237.752 252.122 238.041C251.062 238.331 249.971 237.709 249.682 236.651C249.393 235.594 250.015 234.503 251.074 234.213C252.131 233.923 253.222 234.546 253.511 235.603Z" fill="#6B2D6E"/>
<path d="M268.674 245.245C268.963 246.303 268.339 247.395 267.28 247.685C266.225 247.973 265.133 247.35 264.843 246.293C264.554 245.237 265.177 244.144 266.232 243.855C267.29 243.566 268.384 244.189 268.674 245.245Z" fill="#6B2D6E"/>
<path d="M277.867 221.1C278.157 222.157 277.533 223.249 276.478 223.538C275.42 223.827 274.327 223.205 274.038 222.148C273.748 221.091 274.372 219.998 275.429 219.709C276.485 219.421 277.577 220.043 277.867 221.1Z" fill="#6B2D6E"/>
<path d="M295.297 228.149C295.586 229.206 294.962 230.299 293.906 230.588C292.849 230.877 291.756 230.255 291.466 229.197C291.177 228.14 291.801 227.048 292.859 226.758C293.914 226.469 295.006 227.093 295.297 228.149Z" fill="#6B2D6E"/>
<path d="M307.429 220.976C307.718 222.033 307.096 223.126 306.038 223.415C304.982 223.704 303.889 223.081 303.6 222.025C303.309 220.967 303.934 219.874 304.991 219.585C306.047 219.296 307.139 219.919 307.429 220.976Z" fill="#6B2D6E"/>
<path d="M209.59 285.261L208.297 284.983L216.929 244.714L238.626 258.174L251.607 235.405L266.47 244.947L274.87 220.825L293.659 228.25L305.091 221.104L305.794 222.226L293.794 229.727L275.666 222.563L267.167 246.967L252.067 237.273L239.097 260.023L217.828 246.829L209.59 285.261Z" fill="#6B2D6E"/>
<path d="M213.069 290.168C213.359 291.225 212.737 292.317 211.68 292.606C210.623 292.896 209.53 292.273 209.241 291.216C208.951 290.159 209.574 289.067 210.632 288.777C211.688 288.488 212.779 289.111 213.069 290.168Z" fill="#F2274D"/>
<path d="M211.266 291.833L210.117 291.177L221.526 270.519L245.055 269.732L249.912 255.214L265.91 257.786L285.463 238.665L305.951 247.049L305.449 248.275L285.765 240.219L266.359 259.199L250.788 256.695L245.999 271.022L222.311 271.815L211.266 291.833Z" fill="#F2274D"/>
<path d="M411.268 68.9253L192.67 34.7471L182.201 95.49L182.16 95.7263L142.518 326.238L369.349 365.915L416.029 69.8776L411.268 68.9253Z" fill="#A2B2D6"/>
<path d="M201.636 32.1163L151.497 323.119L364.559 359.829L414.698 68.8266L201.636 32.1163Z" fill="#F1F2F2"/>
<path d="M196.409 62.4724L191.131 93.1045L404.192 129.815L409.47 99.1826L196.409 62.4724Z" fill="#5A5A7A"/>
<path d="M249.283 50.7967L247.654 60.249L379.143 82.9043L380.772 73.452L249.283 50.7967Z" fill="#5A5A7A"/>
<path d="M243.156 89.8156L242.238 95.1396L372.57 117.596L373.487 112.272L243.156 89.8156Z" fill="white"/>
<path d="M229.116 76.9294L228.198 82.2539L390.114 110.152L391.032 104.827L229.116 76.9294Z" fill="white"/>
<path d="M155.406 300.412L154.719 304.4L367.78 341.11L368.467 337.123L155.406 300.412Z" fill="#5A5A7A"/>
<path d="M259.822 175.896L260.698 217.929C268.413 217.493 275.763 215.211 282.223 211.458L259.822 175.896Z" fill="#6B2D6E"/>
<path d="M261.53 171.985L285.21 209.576C295.211 202.753 302.655 192.213 305.312 179.531L261.53 171.985Z" fill="#FFD121"/>
<path d="M305.914 176.05C309.322 150.924 292.702 127.383 267.884 122.183L259.965 168.131L305.914 176.05Z" fill="#75CF33"/>
<path d="M256.232 173.098L220.63 200.459C227.742 209.054 237.843 215.249 249.699 217.293C252.206 217.725 254.701 217.955 257.168 217.996L256.232 173.098Z" fill="#F2274D"/>
<path d="M210.201 161.347C208.578 170.77 209.795 180.025 213.234 188.237L214.715 191.442C215.813 193.607 217.073 195.687 218.477 197.66L256.192 169.228L256.342 168.358L259.586 149.54L264.403 121.584C238.696 118.096 214.643 135.573 210.201 161.347Z" fill="#317AB0"/>
<path d="M209.651 225.572L199.283 285.71L209.834 287.529L220.202 227.391L209.651 225.572Z" fill="#2E97CC"/>
<path d="M222.33 248.753L215.479 288.493L226.028 290.312L232.88 250.572L222.33 248.753Z" fill="#BCD81A"/>
<path d="M236.511 262.763L231.595 291.279L242.145 293.098L247.061 264.582L236.511 262.763Z" fill="#FFC022"/>
<path d="M251.079 274.178L247.653 294.048L258.204 295.867L261.63 275.997L251.079 274.178Z" fill="#8A379B"/>
<path d="M269.54 263.128L263.738 296.801L274.29 298.619L280.092 264.946L269.54 263.128Z" fill="#F44D3B"/>
<path d="M323.183 154.103L321.992 161.012L328.901 162.203L330.092 155.294L323.183 154.103Z" fill="#317AB0"/>
<path d="M335.834 158.473L335.379 161.116L379.901 168.787L380.357 166.144L335.834 158.473Z" fill="#949AAA"/>
<path d="M321.238 165.291L320.048 172.199L326.957 173.39L328.147 166.481L321.238 165.291Z" fill="#75CF33"/>
<path d="M333.912 169.667L333.457 172.311L349.104 175.006L349.559 172.363L333.912 169.667Z" fill="#949AAA"/>
<path d="M319.327 176.487L318.136 183.396L325.044 184.587L326.235 177.678L319.327 176.487Z" fill="#FFD121"/>
<path d="M331.975 180.851L331.52 183.494L367.191 189.64L367.646 186.997L331.975 180.851Z" fill="#949AAA"/>
<path d="M317.375 187.666L316.185 194.575L323.094 195.766L324.284 188.857L317.375 187.666Z" fill="#6B2D6E"/>
<path d="M330.085 192.064L329.63 194.706L356.235 199.293L356.691 196.65L330.085 192.064Z" fill="#949AAA"/>
<path d="M315.419 199.105L314.228 206.014L321.137 207.205L322.328 200.296L315.419 199.105Z" fill="#F2274D"/>
<path d="M328.077 203.477L327.622 206.12L367.983 213.074L368.438 210.431L328.077 203.477Z" fill="#949AAA"/>
<path d="M198.054 136.37C197.737 138.205 195.993 139.436 194.157 139.12C192.322 138.804 191.091 137.059 191.407 135.224C191.723 133.389 193.469 132.158 195.304 132.474C197.138 132.791 198.37 134.535 198.054 136.37Z" fill="#231F20"/>
<path d="M183.002 223.705C182.685 225.54 180.94 226.771 179.105 226.455C177.271 226.139 176.038 224.395 176.355 222.56C176.672 220.724 178.416 219.493 180.251 219.809C182.086 220.126 183.318 221.869 183.002 223.705Z" fill="#231F20"/>
<path d="M300.861 241.289L299.944 246.605L364.606 257.753L365.523 252.436L300.861 241.289Z" fill="#5A5A7A"/>
<path d="M308.456 255.25L308.001 257.893L362.913 267.354L363.368 264.711L308.456 255.25Z" fill="#949AAA"/>
<path d="M297.395 261.179L296.939 263.823L361.601 274.964L362.057 272.32L297.395 261.179Z" fill="#949AAA"/>
<path d="M296.085 268.795L295.63 271.438L360.292 282.579L360.747 279.936L296.085 268.795Z" fill="#949AAA"/>
<path d="M294.806 276.431L294.351 279.074L359.012 290.222L359.468 287.579L294.806 276.431Z" fill="#949AAA"/>
<path d="M293.461 284.019L293.006 286.661L357.668 297.802L358.123 295.16L293.461 284.019Z" fill="#949AAA"/>
<path d="M292.183 291.659L291.728 294.302L339.775 302.585L340.231 299.942L292.183 291.659Z" fill="#949AAA"/>
<path d="M240.813 224.391L240.357 227.034L255.209 229.593L255.665 226.95L240.813 224.391Z" fill="#949AAA"/>
<path d="M228.274 297.163L227.818 299.806L242.67 302.365L243.125 299.722L228.274 297.163Z" fill="#5A5A7A"/>
<path d="M35.5731 1.07031L8.10449 240.309L341.705 270.824L356.31 30.3745L35.5731 1.07031Z" fill="#A2B2D6"/>
<path d="M34.784 0.00123182L14.1328 235.118L335.259 263.324L355.91 28.207L34.784 0.00123182Z" fill="#F7F7F7"/>
<path d="M207.251 36.0834L206.693 42.4287L318.797 52.2752L319.354 45.9299L207.251 36.0834Z" fill="#5A5A7A"/>
<path d="M222.863 52.2479L222.586 55.4014L317.787 63.7632L318.064 60.6097L222.863 52.2479Z" fill="#949AAA"/>
<path d="M205.165 59.8479L204.888 63.002L316.991 72.8484L317.268 69.6944L205.165 59.8479Z" fill="#949AAA"/>
<path d="M204.367 68.9325L204.09 72.0859L316.193 81.9323L316.47 78.7789L204.367 68.9325Z" fill="#949AAA"/>
<path d="M203.569 78.015L203.292 81.1689L315.395 91.0154L315.672 87.8614L203.569 78.015Z" fill="#949AAA"/>
<path d="M202.771 87.0985L202.494 90.252L314.597 100.098L314.874 96.9449L202.771 87.0985Z" fill="#949AAA"/>
<path d="M201.933 96.6463L201.656 99.8008L313.759 109.647L314.036 106.493L201.933 96.6463Z" fill="#949AAA"/>
<path d="M201.135 105.73L200.858 108.884L312.961 118.73L313.238 115.577L201.135 105.73Z" fill="#949AAA"/>
<path d="M200.339 114.815L200.062 117.969L283.363 125.285L283.64 122.132L200.339 114.815Z" fill="#949AAA"/>
<path d="M64.1869 196.328L63.4629 204.571L71.7056 205.295L72.4296 197.052L64.1869 196.328Z" fill="#75CF33"/>
<path d="M79.528 200.229L79.251 203.383L97.9217 205.023L98.1987 201.869L79.528 200.229Z" fill="#949AAA"/>
<path d="M63.0093 209.669L62.2852 217.914L70.5279 218.638L71.252 210.393L63.0093 209.669Z" fill="#F2274D"/>
<path d="M78.3561 213.586L78.0791 216.739L120.645 220.478L120.922 217.325L78.3561 213.586Z" fill="#949AAA"/>
<path d="M103.437 190.725L103.16 193.879L120.882 195.436L121.159 192.282L103.437 190.725Z" fill="#5A5A7A"/>
<path d="M59.4779 125.198L54.7598 178.915L57.5571 179.161L62.2753 125.444L59.4779 125.198Z" fill="#BCD81A"/>
<path d="M60.359 147.27L57.5576 179.164L60.356 179.41L63.1574 147.515L60.359 147.27Z" fill="#F95130"/>
<path d="M68.8107 134.466L64.8252 179.79L67.6246 180.036L71.6101 134.712L68.8107 134.466Z" fill="#BCD81A"/>
<path d="M71.0221 141.427L67.627 180.037L70.4243 180.283L73.8194 141.673L71.0221 141.427Z" fill="#F95130"/>
<path d="M77.1111 155.499L74.8994 180.679L77.6967 180.924L79.9084 155.744L77.1111 155.499Z" fill="#BCD81A"/>
<path d="M80.3815 150.303L77.6953 180.921L80.4947 181.167L83.1809 150.548L80.3815 150.303Z" fill="#F95130"/>
<path d="M88.1143 145.784L84.9775 181.578L87.7754 181.823L90.9121 146.029L88.1143 145.784Z" fill="#BCD81A"/>
<path d="M88.6238 172.113L87.7725 181.817L90.5687 182.063L91.4201 172.359L88.6238 172.113Z" fill="#F95130"/>
<path d="M99.2236 134.899L95.0508 182.461L97.8481 182.706L102.021 135.144L99.2236 134.899Z" fill="#BCD81A"/>
<path d="M102.512 129.539L97.8428 182.696L100.641 182.942L105.31 129.784L102.512 129.539Z" fill="#F95130"/>
<path d="M107.568 155.374L105.103 183.349L107.9 183.595L110.365 155.621L107.568 155.374Z" fill="#BCD81A"/>
<path d="M112.286 133.775L107.912 183.576L110.709 183.822L115.083 134.021L112.286 133.775Z" fill="#F95130"/>
<path d="M118.282 148.969L115.189 184.222L117.988 184.467L121.081 149.215L118.282 148.969Z" fill="#BCD81A"/>
<path d="M120.88 151.613L117.991 184.47L120.789 184.716L123.678 151.859L120.88 151.613Z" fill="#F95130"/>
<path d="M127.129 163.867L125.265 185.113L128.064 185.359L129.928 164.113L127.129 163.867Z" fill="#BCD81A"/>
<path d="M129.448 169.509L128.049 185.368L130.847 185.615L132.246 169.756L129.448 169.509Z" fill="#F95130"/>
<path d="M136.37 174.243L135.338 185.994L138.134 186.24L139.166 174.489L136.37 174.243Z" fill="#BCD81A"/>
<path d="M141.518 147.62L138.127 186.229L140.925 186.475L144.316 147.866L141.518 147.62Z" fill="#F95130"/>
<path d="M149.12 144.352L145.376 186.874L148.174 187.12L151.918 144.598L149.12 144.352Z" fill="#BCD81A"/>
<path d="M153.124 131.173L148.209 187.128L151.006 187.374L155.921 131.419L153.124 131.173Z" fill="#F95130"/>
<path d="M157.779 161.461L155.475 187.76L158.273 188.005L160.578 161.706L157.779 161.461Z" fill="#BCD81A"/>
<path d="M160.227 165.778L158.274 188.003L161.072 188.249L163.024 166.024L160.227 165.778Z" fill="#F95130"/>
<path d="M166.925 172.98L165.551 188.647L168.347 188.893L169.722 173.226L166.925 172.98Z" fill="#BCD81A"/>
<path d="M169.117 179.977L168.336 188.875L171.135 189.121L171.916 180.223L169.117 179.977Z" fill="#F95130"/>
<path d="M71.5522 80.2787L70.8281 88.5225L79.0714 89.2465L79.7954 81.0027L71.5522 80.2787Z" fill="#22BAD3"/>
<path d="M86.8961 84.1888L86.6191 87.3418L139.745 92.0081L140.022 88.8551L86.8961 84.1888Z" fill="#949AAA"/>
<path d="M70.3803 93.6332L69.6562 101.877L77.8995 102.601L78.6236 94.3572L70.3803 93.6332Z" fill="#F95130"/>
<path d="M85.7262 97.5433L85.4492 100.697L104.121 102.337L104.398 99.1833L85.7262 97.5433Z" fill="#949AAA"/>
<path d="M69.2085 106.99L68.4844 115.233L76.7281 115.957L77.4522 107.714L69.2085 106.99Z" fill="#FFD121"/>
<path d="M84.5514 110.898L84.2744 114.052L126.841 117.791L127.118 114.637L84.5514 110.898Z" fill="#949AAA"/>
<path d="M113.731 73.4725L113.454 76.626L131.177 78.1826L131.454 75.0292L113.731 73.4725Z" fill="#5A5A7A"/>
<path d="M202.211 208.445L201.487 216.688L209.731 217.413L210.455 209.169L202.211 208.445Z" fill="#6B2D6E"/>
<path d="M217.548 212.346L217.271 215.499L270.396 220.165L270.672 217.012L217.548 212.346Z" fill="#949AAA"/>
<path d="M201.033 221.793L200.309 230.037L208.552 230.761L209.276 222.517L201.033 221.793Z" fill="#F2274D"/>
<path d="M216.383 225.71L216.106 228.863L234.778 230.503L235.055 227.35L216.383 225.71Z" fill="#949AAA"/>
<path d="M238.42 201.108L238.143 204.262L255.865 205.818L256.142 202.664L238.42 201.108Z" fill="#5A5A7A"/>
<path d="M297.335 183.875C297.276 183.875 297.215 183.873 297.154 183.868C296.531 183.82 295.963 183.532 295.557 183.058C295.15 182.584 294.952 181.98 295 181.356C295.093 180.145 296.117 179.196 297.33 179.196C297.391 179.196 297.451 179.198 297.511 179.203C298.797 179.302 299.763 180.428 299.664 181.713C299.572 182.925 298.549 183.875 297.335 183.875Z" fill="#FF365C"/>
<path d="M297.33 179.554C297.381 179.554 297.432 179.556 297.484 179.559C298.575 179.643 299.393 180.596 299.309 181.687C299.229 182.729 298.36 183.52 297.335 183.52C297.284 183.52 297.233 183.518 297.181 183.514C296.087 183.43 295.271 182.477 295.355 181.385C295.434 180.345 296.302 179.554 297.33 179.554ZM297.33 178.842C295.931 178.842 294.752 179.935 294.645 181.33C294.59 182.048 294.817 182.745 295.286 183.291C295.755 183.838 296.409 184.169 297.127 184.224C297.196 184.229 297.266 184.232 297.335 184.232C298.733 184.232 299.912 183.138 300.019 181.742C300.074 181.024 299.846 180.328 299.378 179.782C298.91 179.236 298.256 178.905 297.539 178.85C297.468 178.844 297.399 178.842 297.33 178.842Z" fill="#FF365C"/>
<path d="M280.794 170.084C280.734 170.084 280.674 170.082 280.614 170.077C279.327 169.979 278.36 168.853 278.458 167.567C278.551 166.355 279.575 165.405 280.791 165.405C280.85 165.405 280.911 165.407 280.971 165.412C282.256 165.511 283.221 166.638 283.122 167.925C283.029 169.136 282.007 170.084 280.794 170.084Z" fill="#FF365C"/>
<path d="M280.79 165.763C280.841 165.763 280.892 165.765 280.943 165.768C282.034 165.852 282.85 166.807 282.767 167.898C282.687 168.939 281.819 169.729 280.794 169.729C280.744 169.729 280.692 169.727 280.641 169.723C279.549 169.64 278.729 168.688 278.813 167.596C278.892 166.556 279.763 165.763 280.79 165.763ZM280.79 165.051C279.39 165.051 278.209 166.145 278.103 167.541C278.048 168.259 278.276 168.956 278.746 169.502C279.215 170.048 279.869 170.378 280.586 170.434C280.656 170.439 280.725 170.442 280.794 170.442C282.192 170.442 283.37 169.348 283.477 167.953C283.532 167.235 283.305 166.539 282.837 165.993C282.369 165.445 281.715 165.114 280.998 165.059C280.928 165.053 280.859 165.051 280.79 165.051Z" fill="#FF365C"/>
<path d="M256.772 180.345C256.712 180.345 256.651 180.343 256.591 180.339C255.968 180.291 255.401 180.004 254.995 179.53C254.587 179.056 254.39 178.452 254.438 177.828C254.531 176.617 255.554 175.667 256.768 175.667C256.828 175.667 256.888 175.669 256.948 175.674C258.235 175.772 259.201 176.899 259.102 178.186C259.009 179.397 257.986 180.345 256.772 180.345Z" fill="#FF365C"/>
<path d="M256.768 176.025C256.818 176.025 256.87 176.027 256.921 176.031C258.013 176.115 258.831 177.068 258.747 178.16C258.668 179.2 257.798 179.991 256.772 179.991C256.721 179.991 256.67 179.989 256.618 179.985C255.527 179.901 254.709 178.949 254.792 177.857C254.872 176.816 255.742 176.025 256.768 176.025ZM256.768 175.312C255.369 175.312 254.189 176.406 254.082 177.803C253.969 179.284 255.082 180.581 256.564 180.695C256.633 180.701 256.703 180.703 256.772 180.703C258.17 180.703 259.351 179.61 259.457 178.215C259.512 177.497 259.284 176.801 258.815 176.254C258.347 175.707 257.693 175.376 256.976 175.321C256.906 175.315 256.836 175.312 256.768 175.312Z" fill="#FF365C"/>
<path d="M242.049 173.171C241.989 173.171 241.928 173.168 241.867 173.164C241.244 173.116 240.677 172.829 240.271 172.355C239.865 171.881 239.667 171.277 239.715 170.653C239.808 169.441 240.831 168.492 242.045 168.492C242.104 168.492 242.165 168.494 242.226 168.499C242.848 168.547 243.415 168.834 243.822 169.309C244.228 169.783 244.425 170.387 244.378 171.011C244.285 172.221 243.262 173.171 242.049 173.171Z" fill="#FF365C"/>
<path d="M242.044 168.848C242.095 168.848 242.146 168.85 242.198 168.854C243.29 168.937 244.106 169.891 244.023 170.983C243.943 172.024 243.075 172.814 242.048 172.814C241.998 172.814 241.946 172.812 241.895 172.808C240.802 172.724 239.986 171.773 240.07 170.681C240.15 169.64 241.017 168.848 242.044 168.848ZM242.044 168.136C240.646 168.136 239.467 169.229 239.36 170.626C239.305 171.344 239.532 172.04 240 172.586C240.469 173.132 241.122 173.463 241.84 173.518C241.91 173.523 241.979 173.526 242.048 173.526C243.446 173.526 244.625 172.432 244.732 171.037C244.787 170.319 244.559 169.623 244.091 169.076C243.623 168.53 242.969 168.198 242.251 168.143C242.182 168.138 242.113 168.136 242.044 168.136Z" fill="#FF365C"/>
<path d="M232.67 185.049C232.61 185.049 232.55 185.047 232.49 185.042C231.203 184.943 230.237 183.817 230.335 182.531C230.428 181.321 231.452 180.372 232.667 180.372C232.726 180.372 232.786 180.374 232.847 180.379C234.134 180.478 235.1 181.603 235.002 182.889C234.908 184.1 233.884 185.049 232.67 185.049Z" fill="#FF365C"/>
<path d="M232.666 180.728C232.717 180.728 232.768 180.73 232.82 180.734C233.911 180.817 234.73 181.769 234.646 182.861C234.567 183.9 233.697 184.692 232.671 184.692C232.62 184.692 232.569 184.69 232.518 184.687C231.427 184.603 230.607 183.649 230.691 182.558C230.77 181.518 231.641 180.728 232.666 180.728ZM232.666 180.016C231.267 180.016 230.087 181.109 229.98 182.504C229.925 183.221 230.153 183.918 230.622 184.464C231.092 185.01 231.745 185.342 232.462 185.397C232.532 185.402 232.601 185.405 232.67 185.405C234.069 185.405 235.249 184.312 235.356 182.915C235.411 182.198 235.183 181.502 234.713 180.955C234.245 180.41 233.591 180.078 232.874 180.024C232.805 180.018 232.735 180.016 232.666 180.016Z" fill="#FF365C"/>
<path d="M210.668 178.06C210.608 178.06 210.548 178.058 210.487 178.053C209.864 178.005 209.297 177.718 208.89 177.244C208.483 176.77 208.286 176.166 208.333 175.542C208.426 174.331 209.449 173.382 210.663 173.382C210.723 173.382 210.784 173.384 210.844 173.389C211.466 173.436 212.033 173.724 212.441 174.198C212.849 174.673 213.047 175.277 212.999 175.9C212.907 177.111 211.882 178.06 210.668 178.06Z" fill="#FF365C"/>
<path d="M210.663 173.739C210.715 173.739 210.766 173.741 210.817 173.745C211.907 173.828 212.729 174.782 212.645 175.873C212.565 176.914 211.693 177.704 210.668 177.704C210.617 177.704 210.566 177.702 210.514 177.698C209.422 177.614 208.604 176.663 208.688 175.57C208.767 174.531 209.636 173.74 210.663 173.739ZM210.663 173.027C209.264 173.027 208.085 174.121 207.978 175.517C207.923 176.235 208.151 176.931 208.619 177.477C209.088 178.024 209.742 178.354 210.46 178.41C210.529 178.415 210.599 178.418 210.668 178.418C212.068 178.418 213.248 177.324 213.355 175.929C213.41 175.211 213.181 174.515 212.711 173.968C212.242 173.422 211.588 173.091 210.871 173.036C210.802 173.03 210.732 173.027 210.663 173.027Z" fill="#FF365C"/>
<path d="M192.425 178.007L214.556 142.3L230.521 162.37L250.398 145.319L261.122 159.236L277.091 139.436L292.409 152.871L305.742 149.959L306.176 151.946L291.842 155.076L277.342 142.362L261.084 162.521L250.098 148.26L230.243 165.289L214.763 145.828L194.154 179.078L192.425 178.007Z" fill="#7A3C7D"/>
<path d="M277.136 139.948L292.31 153.257L305.471 150.383L305.753 151.674L291.942 154.691L277.298 141.85L261.09 161.946L250.151 147.745L230.292 164.779L214.727 145.211L194.04 178.588L192.915 177.892L214.592 142.918L230.473 162.882L250.345 145.834L261.116 159.811L277.136 139.948ZM277.047 138.924L276.581 139.501L261.128 158.661L250.909 145.4L250.451 144.805L249.881 145.294L230.57 161.86L215.15 142.474L214.521 141.683L213.988 142.543L192.31 177.517L191.935 178.122L192.54 178.497L193.664 179.193L194.27 179.568L194.644 178.963L214.799 146.445L229.734 165.222L230.194 165.8L230.755 165.319L250.044 148.774L260.525 162.38L261.077 163.095L261.644 162.392L277.386 142.875L291.471 155.225L291.742 155.462L292.093 155.385L305.904 152.369L306.599 152.217L306.448 151.521L306.166 150.23L306.014 149.534L305.318 149.686L292.508 152.484L277.604 139.412L277.047 138.924Z" fill="#7A3C7D"/>
<path d="M193.637 192.666C193.577 192.666 193.516 192.664 193.456 192.659C192.833 192.612 192.266 192.325 191.86 191.85C191.454 191.376 191.257 190.772 191.305 190.148C191.398 188.936 192.42 187.987 193.633 187.987C193.693 187.987 193.753 187.989 193.814 187.994C194.437 188.042 195.004 188.33 195.41 188.804C195.817 189.278 196.014 189.882 195.966 190.505C195.873 191.717 194.85 192.666 193.637 192.666Z" fill="#FF365C"/>
<path d="M193.632 188.345C193.683 188.345 193.734 188.347 193.786 188.35C194.877 188.434 195.694 189.387 195.611 190.478C195.531 191.52 194.662 192.311 193.637 192.311C193.586 192.311 193.535 192.309 193.483 192.305C192.391 192.222 191.576 191.269 191.66 190.176C191.739 189.136 192.606 188.345 193.632 188.345ZM193.632 187.633C192.234 187.633 191.056 188.726 190.949 190.122C190.836 191.604 191.948 192.902 193.428 193.016C193.498 193.021 193.567 193.024 193.636 193.024C195.034 193.024 196.214 191.93 196.321 190.533C196.375 189.815 196.148 189.12 195.679 188.573C195.211 188.027 194.557 187.696 193.84 187.64C193.77 187.635 193.701 187.633 193.632 187.633Z" fill="#FF365C"/>
<path d="M193.331 191.795C193.236 191.788 193.148 191.744 193.085 191.672L192.225 190.668C192.099 190.521 192.114 190.298 192.26 190.169L209.945 174.579C210.011 174.521 210.096 174.49 210.181 174.49C210.217 174.49 210.254 174.495 210.29 174.506L232.452 181.609L241.754 169.782C241.823 169.694 241.928 169.646 242.034 169.646C242.092 169.646 242.151 169.66 242.205 169.69L256.232 177.407L280.899 166.075C280.946 166.053 280.997 166.043 281.047 166.043C281.133 166.043 281.219 166.075 281.285 166.134L297.733 180.918C297.879 181.049 297.892 181.274 297.761 181.42L296.879 182.405C296.815 182.475 296.727 182.517 296.633 182.523C296.627 182.523 296.62 182.523 296.613 182.523C296.526 182.523 296.441 182.491 296.376 182.432L280.745 168.384L256.314 179.609C256.267 179.63 256.216 179.641 256.165 179.641C256.106 179.641 256.047 179.626 255.993 179.597L242.45 172.147L233.312 183.775C233.243 183.863 233.139 183.911 233.032 183.911C232.996 183.911 232.959 183.906 232.923 183.894L210.565 176.728L193.591 191.708C193.526 191.765 193.442 191.797 193.355 191.797C193.348 191.796 193.34 191.796 193.331 191.795Z" fill="#FF365C"/>
<path d="M281.047 166.4L297.495 181.184L296.613 182.168L280.809 167.964L256.165 179.286L242.357 171.691L233.031 183.556L210.481 176.328L193.354 191.441L192.494 190.437L210.18 174.846L232.577 182.025L242.031 170.003L256.216 177.807L281.047 166.4ZM281.047 165.688C280.946 165.688 280.845 165.71 280.75 165.753L256.246 177.011L242.376 169.38C242.267 169.32 242.149 169.292 242.033 169.292C241.82 169.292 241.612 169.387 241.473 169.564L232.325 181.196L210.398 174.169C210.327 174.146 210.253 174.135 210.181 174.135C210.01 174.135 209.842 174.196 209.71 174.312L192.024 189.903C191.732 190.161 191.701 190.605 191.954 190.901L192.814 191.904C192.938 192.049 193.116 192.138 193.306 192.151C193.322 192.153 193.339 192.153 193.355 192.153C193.528 192.153 193.696 192.09 193.827 191.975L210.65 177.13L232.815 184.234C232.887 184.257 232.96 184.268 233.032 184.268C233.247 184.268 233.455 184.171 233.593 183.996L242.544 172.606L255.822 179.91C255.929 179.969 256.047 179.998 256.165 179.998C256.267 179.998 256.368 179.977 256.463 179.933L280.68 168.807L296.137 182.698C296.268 182.815 296.437 182.88 296.613 182.88C296.626 182.88 296.638 182.88 296.651 182.879C296.84 182.869 297.017 182.784 297.143 182.643L298.026 181.659C298.288 181.367 298.264 180.917 297.971 180.654L281.523 165.871C281.389 165.751 281.219 165.688 281.047 165.688Z" fill="#FF365C"/>
<path d="M96.7695 56.8079L112.481 43.6365L127.101 59.5684L157.822 26.9131L180.319 61.3233L97.4498 58.9287L96.7695 56.8079Z" fill="#F95130"/>
<path d="M184.461 53.3949L168.826 34.751L146.178 51.5814L129.372 36.8708L108.828 58.1191L86.6359 43.3431L74.6826 59.4786L181.379 68.0391L184.461 53.3949Z" fill="#FFD121"/>
<path d="M184.461 53.3949L168.826 34.751L146.178 51.5814L129.372 36.8708L108.828 58.1191L86.6359 43.3431L74.6826 59.4786" stroke="white" stroke-width="3.7727" stroke-miterlimit="10" stroke-linecap="round" stroke-linejoin="round"/>
<path d="M61.0898 62.1738L76.4928 49.1575L84.5313 56.8801L98.5542 46.7961L110.686 57.5107L137.718 41.292L157.79 59.2288L187.502 48.7757L185.253 73.4743L61.0898 62.1738Z" fill="#22BAD3"/>
<path d="M76.4922 49.1555L84.5306 56.8781L98.5536 46.7942L110.685 57.5088L137.718 41.29L157.789 59.2268L187.501 48.7738" stroke="white" stroke-width="3.7727" stroke-miterlimit="10" stroke-linecap="round" stroke-linejoin="round"/>
<path d="M195.752 178.1C195.669 179.193 194.716 180.01 193.623 179.926C192.532 179.843 191.711 178.89 191.794 177.798C191.878 176.706 192.834 175.889 193.926 175.973C195.018 176.056 195.836 177.009 195.752 178.1Z" fill="#F7F7F7" stroke="#7A3C7D" stroke-width="2.8295" stroke-miterlimit="10"/>
<path d="M216.513 144.064C216.429 145.156 215.475 145.974 214.382 145.89C213.292 145.807 212.472 144.853 212.556 143.761C212.639 142.67 213.596 141.851 214.685 141.935C215.778 142.018 216.597 142.973 216.513 144.064Z" fill="#F7F7F7" stroke="#7A3C7D" stroke-width="2.8295" stroke-miterlimit="10"/>
<path d="M232.459 163.987C232.375 165.08 231.425 165.896 230.333 165.813C229.241 165.729 228.424 164.778 228.508 163.685C228.591 162.593 229.544 161.775 230.636 161.858C231.728 161.942 232.543 162.896 232.459 163.987Z" fill="#F7F7F7" stroke="#7A3C7D" stroke-width="2.8295" stroke-miterlimit="10"/>
<path d="M252.068 146.659C251.984 147.753 251.029 148.57 249.939 148.487C248.844 148.403 248.027 147.45 248.11 146.357C248.194 145.266 249.147 144.448 250.241 144.532C251.331 144.615 252.151 145.568 252.068 146.659Z" fill="#F7F7F7" stroke="#7A3C7D" stroke-width="2.8295" stroke-miterlimit="10"/>
<path d="M263.083 160.832C262.999 161.924 262.043 162.741 260.952 162.658C259.862 162.575 259.045 161.622 259.129 160.53C259.213 159.438 260.165 158.62 261.256 158.703C262.346 158.786 263.167 159.741 263.083 160.832Z" fill="#F7F7F7" stroke="#7A3C7D" stroke-width="2.8295" stroke-miterlimit="10"/>
<path d="M279.858 141.214C279.774 142.306 278.822 143.123 277.731 143.039C276.637 142.956 275.821 142.004 275.904 140.911C275.988 139.82 276.94 139.001 278.034 139.085C279.125 139.168 279.941 140.122 279.858 141.214Z" fill="#F7F7F7" stroke="#7A3C7D" stroke-width="2.8295" stroke-miterlimit="10"/>
<path d="M293.883 153.711C293.799 154.803 292.847 155.621 291.757 155.537C290.663 155.454 289.842 154.5 289.926 153.408C290.01 152.317 290.966 151.499 292.06 151.582C293.15 151.666 293.967 152.62 293.883 153.711Z" fill="#F7F7F7" stroke="#7A3C7D" stroke-width="2.8295" stroke-miterlimit="10"/>
<path d="M307.711 151.047C307.627 152.138 306.673 152.957 305.581 152.873C304.491 152.79 303.673 151.836 303.756 150.744C303.839 149.653 304.794 148.834 305.884 148.918C306.976 149.002 307.795 149.956 307.711 151.047Z" fill="#F7F7F7" stroke="#7A3C7D" stroke-width="2.8295" stroke-miterlimit="10"/>
<path d="M354.93 282.129L329.729 103.723C328.961 98.2811 323.926 94.4934 318.484 95.2622L43.6305 134.088C38.1891 134.856 34.4014 139.891 35.1692 145.332L60.3703 323.738C61.1386 329.178 66.1734 332.967 71.6153 332.198L346.469 293.373C351.91 292.603 355.699 287.57 354.93 282.129Z" fill="#A2B2D6"/>
<path d="M362.804 276.037C363.528 281.546 359.649 286.6 354.138 287.324L75.8343 323.911C70.3238 324.634 65.2705 320.756 64.546 315.246L40.7987 134.6C40.0752 129.09 43.9542 124.037 49.4647 123.312L327.768 86.7266C333.279 86.0026 338.332 89.8815 339.056 95.3909L362.804 276.037Z" fill="#3F4751"/>
<g opacity="0.3">
<path d="M329.091 90.1216C332.375 90.1216 335.175 92.5821 335.604 95.8451L359.352 276.491C359.58 278.234 359.117 279.961 358.047 281.355C356.977 282.749 355.427 283.643 353.684 283.872L75.381 320.459C75.0926 320.497 74.7999 320.516 74.5104 320.516C71.2268 320.516 68.4267 318.055 67.9975 314.792L44.2497 134.146C43.7772 130.549 46.32 127.237 49.9179 126.764L328.221 90.1785C328.51 90.1406 328.803 90.1216 329.091 90.1216ZM329.091 87.6348C328.695 87.6348 328.293 87.6611 327.897 87.7133L49.593 124.299C44.6362 124.95 41.1327 129.513 41.784 134.47L65.5318 315.117C66.1234 319.612 69.9829 323.003 74.5104 323.003C74.9064 323.003 75.3088 322.977 75.7048 322.925L354.009 286.339C356.41 286.023 358.545 284.791 360.02 282.87C361.495 280.949 362.133 278.569 361.817 276.168L338.07 95.5213C337.478 91.0249 333.618 87.6348 329.091 87.6348Z" fill="#231F20"/>
</g>
<path d="M362.804 276.037C363.528 281.546 359.649 286.6 354.138 287.324L75.8343 323.911C70.3238 324.634 65.2705 320.756 64.546 315.246L40.7987 134.6C40.0752 129.09 43.9542 124.037 49.4647 123.312L327.768 86.7266C333.279 86.0026 338.332 89.8815 339.056 95.3909L362.804 276.037Z" stroke="#BFC9D8" stroke-width="5.659" stroke-miterlimit="10"/>
<g opacity="0.3">
<path d="M180.211 312.678L101.569 322.327L146.964 108.884L225.606 99.2344L180.211 312.678Z" fill="white"/>
</g>
<path d="M192.57 116.359C192.745 117.695 191.805 118.921 190.468 119.097C189.133 119.272 187.906 118.331 187.731 116.995C187.555 115.658 188.496 114.432 189.832 114.257C191.169 114.082 192.394 115.023 192.57 116.359Z" fill="#3F4751"/>
<path d="M315.404 111.194L67.7295 143.743L88.1376 299.036L335.813 266.487L315.404 111.194Z" fill="white"/>
<path d="M291.24 191.774C291.128 191.774 291.017 191.749 290.915 191.699C290.733 191.611 290.594 191.452 290.531 191.26L283.778 170.625C283.674 170.307 283.795 169.958 284.074 169.772C284.2 169.689 284.344 169.647 284.487 169.647C284.662 169.647 284.836 169.709 284.975 169.829L301.39 184.03C301.543 184.162 301.635 184.351 301.647 184.553C301.658 184.756 301.586 184.953 301.448 185.102C298.7 188.056 295.259 190.347 291.496 191.728C291.414 191.759 291.327 191.774 291.24 191.774Z" fill="#72BDBA"/>
<path d="M284.488 170.394L300.903 184.594C298.274 187.42 294.986 189.653 291.241 191.028L284.488 170.394ZM284.488 168.901C284.201 168.901 283.914 168.984 283.662 169.151C283.104 169.523 282.862 170.221 283.07 170.858L289.823 191.492C289.949 191.877 290.226 192.194 290.59 192.371C290.795 192.47 291.018 192.52 291.241 192.52C291.414 192.52 291.588 192.489 291.755 192.429C295.627 191.008 299.168 188.649 301.996 185.61C302.272 185.313 302.415 184.918 302.393 184.513C302.372 184.109 302.186 183.731 301.88 183.465L285.465 169.265C285.186 169.024 284.837 168.901 284.488 168.901Z" fill="white"/>
<path d="M302.096 183.96C301.918 183.96 301.744 183.896 301.608 183.778L284.258 168.766C284.035 168.573 283.947 168.268 284.032 167.986C284.117 167.704 284.361 167.499 284.653 167.462L307.417 164.606C307.448 164.603 307.479 164.601 307.51 164.601C307.679 164.601 307.845 164.658 307.978 164.766C308.136 164.893 308.235 165.078 308.253 165.28C308.846 171.928 306.866 178.462 302.677 183.68C302.55 183.838 302.365 183.937 302.163 183.956C302.141 183.958 302.119 183.96 302.096 183.96Z" fill="#FFD121"/>
<path d="M307.51 165.347C308.105 172.012 306.009 178.339 302.095 183.214L284.745 168.203L307.51 165.347ZM307.51 163.855C307.448 163.855 307.386 163.859 307.324 163.867L284.56 166.723C283.976 166.796 283.489 167.207 283.318 167.771C283.147 168.335 283.324 168.946 283.77 169.332L301.12 184.343C301.392 184.579 301.739 184.707 302.096 184.707C302.141 184.707 302.185 184.705 302.231 184.7C302.634 184.664 303.005 184.465 303.26 184.149C307.57 178.78 309.607 172.056 308.997 165.215C308.961 164.812 308.762 164.44 308.447 164.186C308.18 163.971 307.849 163.855 307.51 163.855Z" fill="white"/>
<path d="M283.391 167.282C283.226 167.282 283.064 167.227 282.933 167.125C282.777 167.004 282.675 166.825 282.65 166.629L279.655 142.736C279.63 142.536 279.687 142.333 279.815 142.175C279.942 142.018 280.127 141.919 280.329 141.901C281.093 141.833 281.868 141.798 282.633 141.798C295.315 141.798 305.992 150.891 308.019 163.42C308.052 163.619 308.001 163.824 307.88 163.986C307.759 164.148 307.577 164.254 307.376 164.279L283.484 167.276C283.452 167.279 283.421 167.282 283.391 167.282Z" fill="#FF6464"/>
<path d="M282.632 142.544C294.759 142.544 305.311 151.356 307.282 163.539L283.39 166.536L280.395 142.644C281.145 142.577 281.892 142.544 282.632 142.544ZM282.632 141.052C281.846 141.052 281.049 141.087 280.263 141.158C279.859 141.194 279.488 141.392 279.234 141.707C278.98 142.023 278.865 142.428 278.915 142.829L281.91 166.722C281.959 167.114 282.163 167.471 282.475 167.714C282.738 167.919 283.061 168.028 283.39 168.028C283.452 168.028 283.514 168.024 283.576 168.016L307.468 165.019C307.87 164.969 308.234 164.757 308.477 164.433C308.719 164.109 308.82 163.7 308.755 163.3C307.749 157.08 304.544 151.41 299.73 147.334C294.945 143.283 288.873 141.052 282.632 141.052Z" fill="white"/>
<path d="M282.568 193.31C277.525 193.31 272.629 191.835 268.408 189.044C268.239 188.932 268.123 188.756 268.086 188.558C268.049 188.358 268.095 188.153 268.212 187.988L281.686 169.117C281.828 168.919 282.055 168.805 282.293 168.805C282.331 168.805 282.369 168.807 282.406 168.813C282.685 168.856 282.915 169.051 283.002 169.318L290.216 191.36C290.279 191.553 290.26 191.763 290.166 191.942C290.071 192.121 289.907 192.254 289.712 192.309C288.442 192.673 287.127 192.942 285.805 193.108C284.731 193.242 283.642 193.31 282.568 193.31Z" fill="#A2B2D6"/>
<path d="M282.293 169.55L289.506 191.592C288.28 191.943 287.014 192.204 285.711 192.367C284.655 192.499 283.606 192.564 282.568 192.564C277.549 192.564 272.801 191.055 268.819 188.421L282.293 169.55ZM282.293 168.058C281.816 168.058 281.362 168.287 281.079 168.682L267.605 187.554C267.37 187.883 267.278 188.295 267.352 188.693C267.426 189.091 267.659 189.442 267.996 189.666C272.339 192.538 277.378 194.056 282.568 194.056C283.673 194.056 284.793 193.986 285.897 193.847C287.257 193.677 288.61 193.4 289.918 193.026C290.307 192.914 290.635 192.649 290.825 192.291C291.015 191.933 291.051 191.513 290.925 191.128L283.712 169.086C283.537 168.551 283.076 168.16 282.52 168.075C282.444 168.063 282.368 168.058 282.293 168.058Z" fill="white"/>
<path d="M267.332 188.108C267.168 188.108 267.008 188.055 266.877 187.953C265.851 187.162 264.883 186.294 263.999 185.372L262.769 183.991C259.628 180.204 257.655 175.636 257.043 170.759C255.31 156.934 264.72 144.36 278.465 142.134C278.505 142.127 278.545 142.124 278.584 142.124C278.745 142.124 278.902 142.176 279.032 142.273C279.193 142.394 279.299 142.576 279.325 142.777L282.431 167.551C282.454 167.74 282.405 167.93 282.294 168.083L267.935 187.802C267.817 187.965 267.637 188.072 267.438 188.101C267.403 188.106 267.368 188.108 267.332 188.108Z" fill="#B74FB0"/>
<path d="M278.585 142.87L280.407 157.406L281.634 167.191L281.691 167.643L267.333 187.362C266.341 186.597 265.405 185.76 264.538 184.855L263.326 183.494C260.391 179.955 258.398 175.565 257.784 170.666C256.104 157.264 265.36 145.013 278.585 142.87ZM278.585 141.378C278.505 141.378 278.426 141.384 278.346 141.397C271.556 142.497 265.538 146.139 261.402 151.651C257.254 157.176 255.444 163.996 256.304 170.852C256.933 175.87 258.964 180.571 262.177 184.448C262.189 184.461 262.2 184.475 262.212 184.488L263.424 185.849C263.436 185.863 263.448 185.876 263.461 185.889C264.37 186.838 265.366 187.731 266.421 188.545C266.684 188.748 267.005 188.856 267.333 188.856C267.403 188.856 267.473 188.85 267.544 188.84C267.943 188.783 268.301 188.567 268.539 188.242L282.897 168.523C283.12 168.216 283.219 167.836 283.171 167.46L283.114 167.007L281.888 157.222L280.065 142.686C280.015 142.284 279.803 141.92 279.479 141.677C279.219 141.481 278.905 141.378 278.585 141.378Z" fill="white"/>
<path d="M272.473 210.185L265.064 211.165L266.045 218.574L273.454 217.594L272.473 210.185Z" fill="#72BDBA"/>
<path d="M271.605 211.289L272.324 216.726L266.888 217.445L266.169 212.008L271.605 211.289ZM273.316 209.056L271.344 209.317L265.908 210.036L263.936 210.297L264.197 212.269L264.916 217.706L265.177 219.678L267.149 219.417L272.585 218.698L274.557 218.437L274.296 216.465L273.577 211.028L273.316 209.056Z" fill="white"/>
<path d="M311.712 207.7L276.674 212.337L276.949 214.417L311.988 209.78L311.712 207.7Z" fill="#5A5A7A"/>
<path d="M273.627 219.002L266.219 219.981L267.199 227.391L274.607 226.411L273.627 219.002Z" fill="#FF6464"/>
<path d="M272.769 220.098L273.489 225.535L268.053 226.254L267.333 220.818L272.769 220.098ZM274.481 217.865L272.509 218.126L267.073 218.846L265.101 219.107L265.362 221.079L266.081 226.515L266.342 228.488L268.314 228.227L273.75 227.507L275.722 227.246L275.461 225.274L274.742 219.837L274.481 217.865Z" fill="white"/>
<path d="M290.155 219.516L277.84 221.146L278.115 223.226L290.43 221.596L290.155 219.516Z" fill="#5A5A7A"/>
<path d="M274.805 227.803L267.396 228.783L268.377 236.193L275.785 235.212L274.805 227.803Z" fill="#FFD121"/>
<path d="M273.937 228.905L274.656 234.342L269.22 235.062L268.501 229.625L273.937 228.905ZM275.648 226.672L273.676 226.933L268.24 227.652L266.268 227.913L266.529 229.885L267.248 235.322L267.509 237.294L269.481 237.033L274.917 236.314L276.889 236.053L276.628 234.081L275.909 228.644L275.648 226.672Z" fill="white"/>
<path d="M307.08 226.236L279.006 229.951L279.281 232.031L307.355 228.316L307.08 226.236Z" fill="#5A5A7A"/>
<path d="M275.893 236.885L268.484 237.865L269.465 245.275L276.873 244.294L275.893 236.885Z" fill="#B74FB0"/>
<path d="M275.024 237.988L275.744 243.425L270.307 244.144L269.588 238.707L275.024 237.988ZM276.736 235.755L274.764 236.016L269.328 236.735L267.355 236.996L267.616 238.968L268.336 244.406L268.597 246.378L270.569 246.117L276.005 245.397L277.977 245.136L277.716 243.164L276.997 237.728L276.736 235.755Z" fill="white"/>
<path d="M308.168 235.321L280.094 239.036L280.369 241.116L308.443 237.401L308.168 235.321Z" fill="#5A5A7A"/>
<path opacity="0.6" d="M100.512 239.204C124.223 236.111 110.715 180.555 144.841 177.794C181.998 174.787 174.728 249.256 236.149 241.245C240.031 240.738 243.688 240.133 247.132 239.443L248.108 248.222L104.758 267.372L100.512 239.204Z" fill="#BAB7F7"/>
<path opacity="0.5" d="M97.6172 217.927C113.502 215.855 124.056 225.635 130.506 231.885C140.463 241.536 158.998 243.833 169.267 227.351C185.708 200.962 205.152 200.772 222.87 215.928C229.877 221.921 237.66 224.722 245.019 223.853L247.521 247.489L104.094 266.377L97.6172 217.927Z" fill="#FF7D55"/>
<path opacity="0.4" d="M246.469 238.448C243.026 239.139 239.369 239.744 235.486 240.25C205.965 244.101 192.313 228.897 181.969 212.399C177.599 215.886 173.341 220.814 169.268 227.352C158.999 243.834 140.465 241.536 130.507 231.886C126.722 228.218 121.52 223.336 114.66 220.346C111.901 229.515 108.242 236.834 100.319 238.13L104.095 266.377L247.386 247.625L246.469 238.448Z" fill="#CE8FFF"/>
<path d="M187.915 255.268L182.11 212.625C174.354 200.301 168.478 187.21 159.235 180.771L169.037 257.771L187.915 255.268Z" fill="#FFD121"/>
<path d="M182.121 212.628L182.281 213.85" stroke="white" stroke-width="2.3368" stroke-miterlimit="10" stroke-linecap="round"/>
<path d="M182.768 217.589L187.402 253.117" stroke="white" stroke-width="2.3368" stroke-miterlimit="10" stroke-linecap="round" stroke-dasharray="4.77 7.15"/>
<path d="M187.646 254.987L187.806 256.209" stroke="white" stroke-width="2.3368" stroke-miterlimit="10" stroke-linecap="round"/>
<path d="M206.165 205.349L206.324 206.57" stroke="white" stroke-width="2.3368" stroke-miterlimit="10" stroke-linecap="round"/>
<path d="M206.79 210.14L211.989 249.997" stroke="white" stroke-width="2.3368" stroke-miterlimit="10" stroke-linecap="round" stroke-dasharray="4.55 6.83"/>
<path d="M212.221 251.781L212.38 253.003" stroke="white" stroke-width="2.3368" stroke-miterlimit="10" stroke-linecap="round"/>
<path d="M159.284 182.052L159.443 183.274" stroke="white" stroke-width="2.3368" stroke-miterlimit="10" stroke-linecap="round"/>
<path d="M159.938 187.056L168.734 254.497" stroke="white" stroke-width="2.3368" stroke-miterlimit="10" stroke-linecap="round" stroke-dasharray="4.82 7.23"/>
<path d="M168.981 256.387L169.141 257.608" stroke="white" stroke-width="2.3368" stroke-miterlimit="10" stroke-linecap="round"/>
<path d="M114.916 221.394L115.075 222.615" stroke="white" stroke-width="2.3368" stroke-miterlimit="10" stroke-linecap="round"/>
<path d="M115.562 226.354L120.197 261.883" stroke="white" stroke-width="2.3368" stroke-miterlimit="10" stroke-linecap="round" stroke-dasharray="4.77 7.15"/>
<path d="M120.441 263.753L120.601 264.975" stroke="white" stroke-width="2.3368" stroke-miterlimit="10" stroke-linecap="round"/>
<path d="M210.472 238.297C217.316 240.672 225.491 241.552 235.486 240.248C239.368 239.742 243.025 239.137 246.469 238.447" stroke="#8C83DD" stroke-width="3.1158" stroke-miterlimit="10"/>
<path d="M99.8496 238.209C123.561 235.116 110.053 179.56 144.179 176.799C175.29 174.281 175.256 226.077 210.473 238.297" stroke="#8C83DD" stroke-width="3.1158" stroke-miterlimit="10"/>
<path d="M182.006 212.366C195.264 201.815 209.555 204.538 222.87 215.927C229.877 221.921 237.661 224.722 245.019 223.853" stroke="#FF7261" stroke-width="2.4718" stroke-miterlimit="10"/>
<path d="M165.67 232.051C166.951 230.695 168.157 229.133 169.267 227.351C173.352 220.795 177.623 215.855 182.006 212.367" stroke="white" stroke-width="2.4718" stroke-miterlimit="10"/>
<path d="M97.6172 217.927C113.502 215.856 124.056 225.636 130.506 231.886C139.387 240.494 155.092 243.252 165.669 232.052" stroke="#FF7261" stroke-width="2.4718" stroke-miterlimit="10"/>
<path d="M92.0947 174.381L104.094 266.377L248.631 247.526" stroke="#3F4751" stroke-width="3.8947" stroke-miterlimit="10"/>
<path d="M91.3437 168.63L89.0889 177.167L92.15 174.811L95.7115 176.303L91.3437 168.63Z" fill="#3F4751"/>
<path d="M254.383 246.775L246.71 251.144L248.202 247.582L245.847 244.521L254.383 246.775Z" fill="#3F4751"/>
<path d="M112.635 220.586C112.481 219.404 113.313 218.322 114.494 218.168C115.676 218.014 116.758 218.846 116.912 220.028C117.066 221.209 116.234 222.291 115.052 222.445C113.871 222.599 112.789 221.767 112.635 220.586Z" fill="white" stroke="#FF6464" stroke-width="2.3368" stroke-miterlimit="10"/>
<path d="M95.7762 218.367C95.6222 217.186 96.4548 216.103 97.636 215.949C98.8172 215.795 99.8998 216.628 100.054 217.809C100.208 218.99 99.3751 220.072 98.1939 220.227C97.0127 220.381 95.9301 219.548 95.7762 218.367Z" fill="white" stroke="#FF6464" stroke-width="2.3368" stroke-miterlimit="10"/>
<path d="M179.982 212.908C179.828 211.727 180.661 210.644 181.842 210.49C183.023 210.336 184.105 211.169 184.26 212.35C184.414 213.531 183.581 214.614 182.4 214.768C181.218 214.921 180.136 214.088 179.982 212.908Z" fill="white" stroke="#FF6464" stroke-width="2.3368" stroke-miterlimit="10"/>
<path d="M157.071 180.846C156.917 179.665 157.75 178.582 158.931 178.428C160.112 178.275 161.195 179.107 161.349 180.288C161.503 181.47 160.67 182.552 159.489 182.706C158.307 182.86 157.225 182.027 157.071 180.846Z" fill="#8C83DD"/>
<path d="M204.388 206.824C204.234 205.643 205.067 204.56 206.248 204.406C207.43 204.252 208.512 205.085 208.666 206.266C208.82 207.447 207.987 208.529 206.806 208.684C205.625 208.838 204.542 208.005 204.388 206.824Z" fill="#FF6464"/>
<path d="M118.633 198.816C118.479 197.635 119.311 196.552 120.492 196.398C121.674 196.244 122.756 197.077 122.91 198.258C123.064 199.439 122.232 200.521 121.05 200.676C119.869 200.83 118.787 199.997 118.633 198.816Z" fill="#8C83DD"/>
<path d="M118.509 264.557C118.355 263.376 119.187 262.294 120.368 262.139C121.55 261.985 122.632 262.818 122.786 263.999C122.94 265.181 122.108 266.263 120.926 266.417C119.745 266.571 118.663 265.738 118.509 264.557Z" fill="#3F4751"/>
<path d="M185.715 255.793C185.561 254.611 186.393 253.529 187.574 253.375C188.756 253.221 189.838 254.053 189.992 255.235C190.146 256.416 189.314 257.498 188.132 257.652C186.951 257.806 185.869 256.974 185.715 255.793Z" fill="#3F4751"/>
<path d="M210.425 252.568C210.271 251.387 211.103 250.305 212.284 250.15C213.466 249.996 214.548 250.829 214.702 252.01C214.856 253.191 214.024 254.273 212.842 254.428C211.661 254.582 210.579 253.749 210.425 252.568Z" fill="#3F4751"/>
<path d="M167.182 258.21C167.028 257.028 167.861 255.946 169.042 255.792C170.223 255.638 171.306 256.47 171.46 257.652C171.614 258.833 170.781 259.915 169.6 260.069C168.419 260.223 167.336 259.391 167.182 258.21Z" fill="#3F4751"/>
<path d="M98.5144 238.307C98.3605 237.126 99.1931 236.043 100.374 235.889C101.555 235.735 102.638 236.568 102.792 237.749C102.946 238.93 102.113 240.013 100.932 240.167C99.751 240.321 98.6689 239.488 98.5144 238.307Z" fill="white" stroke="#8C83DD" stroke-width="2.3368" stroke-miterlimit="10"/>
<path d="M161.065 167.733L161.808 176.259L170.183 175.518L167.688 170.816L161.065 167.733Z" fill="#8C83DD"/>
<path d="M169.197 174.839C165.504 174.839 162.358 172.074 161.88 168.407C161.353 164.367 164.211 160.653 168.249 160.126C168.568 160.085 168.893 160.063 169.213 160.063C172.906 160.063 176.052 162.829 176.53 166.496C177.056 170.534 174.199 174.249 170.16 174.776C169.84 174.818 169.516 174.839 169.197 174.839Z" fill="white"/>
<path d="M169.213 160.802C172.502 160.802 175.36 163.242 175.797 166.591C176.272 170.231 173.706 173.568 170.065 174.043C169.773 174.081 169.483 174.099 169.196 174.099C165.907 174.099 163.049 171.659 162.612 168.31C162.137 164.67 164.703 161.333 168.345 160.858C168.637 160.82 168.927 160.802 169.213 160.802ZM169.213 159.324C168.861 159.324 168.504 159.347 168.154 159.393C166.002 159.674 164.087 160.776 162.764 162.496C161.441 164.216 160.867 166.349 161.148 168.501C161.674 172.535 165.134 175.577 169.197 175.577C169.549 175.577 169.905 175.554 170.256 175.508C174.699 174.928 177.842 170.842 177.263 166.399C176.736 162.366 173.275 159.324 169.213 159.324Z" fill="#8C83DD"/>
<path d="M208.313 194.918L209.056 203.443L217.431 202.703L214.936 198.001L208.313 194.918Z" fill="#FF6464"/>
<path d="M216.442 202.023C212.75 202.023 209.604 199.257 209.126 195.59C208.871 193.634 209.393 191.695 210.595 190.131C211.798 188.567 213.538 187.565 215.495 187.31C215.814 187.268 216.139 187.247 216.459 187.247C220.152 187.247 223.297 190.012 223.776 193.679C224.031 195.636 223.509 197.575 222.306 199.139C221.103 200.703 219.363 201.705 217.406 201.96C217.087 202.001 216.762 202.023 216.442 202.023Z" fill="white"/>
<path d="M216.458 187.985C219.748 187.985 222.606 190.425 223.042 193.774C223.518 197.415 220.951 200.752 217.31 201.226C217.018 201.264 216.728 201.283 216.442 201.283C213.153 201.283 210.295 198.843 209.857 195.494C209.382 191.853 211.949 188.516 215.59 188.042C215.882 188.004 216.172 187.985 216.458 187.985ZM216.459 186.508H216.458C216.107 186.508 215.75 186.531 215.4 186.577C210.957 187.156 207.814 191.242 208.393 195.685C208.919 199.719 212.38 202.76 216.442 202.76C216.794 202.76 217.15 202.737 217.501 202.691C219.653 202.411 221.568 201.309 222.891 199.588C224.215 197.868 224.788 195.735 224.508 193.583C223.982 189.55 220.521 186.508 216.459 186.508Z" fill="#FF6464"/>
<path d="M166.488 167.181C166.173 166.971 165.992 166.68 165.944 166.311C165.92 166.128 165.935 165.953 165.988 165.785C166.041 165.617 166.127 165.466 166.244 165.331C166.361 165.196 166.506 165.083 166.68 164.993C166.853 164.901 167.046 164.842 167.26 164.814C167.472 164.786 167.674 164.794 167.865 164.838C168.057 164.882 168.227 164.954 168.375 165.053C168.522 165.153 168.643 165.278 168.738 165.427C168.833 165.575 168.892 165.741 168.916 165.923C168.965 166.293 168.863 166.619 168.613 166.904C169.062 167.119 169.318 167.479 169.383 167.984C169.411 168.192 169.396 168.393 169.34 168.588C169.284 168.784 169.19 168.959 169.061 169.115C168.931 169.272 168.768 169.402 168.572 169.507C168.375 169.612 168.151 169.681 167.899 169.714C167.648 169.747 167.413 169.738 167.196 169.687C166.98 169.635 166.789 169.551 166.624 169.434C166.458 169.316 166.323 169.17 166.219 168.996C166.114 168.822 166.048 168.631 166.021 168.422C165.988 168.174 166.01 167.945 166.086 167.734C166.162 167.523 166.297 167.338 166.488 167.181ZM166.967 166.277C166.975 166.342 166.997 166.402 167.03 166.457C167.064 166.512 167.105 166.56 167.154 166.6C167.204 166.64 167.258 166.669 167.319 166.688C167.378 166.706 167.441 166.712 167.506 166.703C167.641 166.686 167.749 166.623 167.829 166.515C167.91 166.407 167.942 166.286 167.925 166.151C167.907 166.012 167.845 165.901 167.739 165.818C167.633 165.734 167.512 165.701 167.377 165.719C167.247 165.736 167.142 165.798 167.06 165.906C166.98 166.014 166.949 166.138 166.967 166.277ZM167.063 168.186C167.075 168.277 167.103 168.362 167.146 168.44C167.19 168.518 167.244 168.583 167.311 168.634C167.377 168.685 167.45 168.723 167.528 168.749C167.606 168.773 167.689 168.78 167.776 168.769C167.859 168.758 167.936 168.731 168.008 168.686C168.079 168.641 168.14 168.586 168.192 168.519C168.242 168.453 168.279 168.378 168.301 168.293C168.323 168.209 168.328 168.118 168.315 168.023C168.29 167.832 168.209 167.68 168.07 167.567C167.932 167.455 167.775 167.41 167.602 167.433C167.514 167.444 167.436 167.472 167.368 167.517C167.298 167.561 167.239 167.618 167.188 167.686C167.136 167.754 167.1 167.831 167.078 167.915C167.056 168.001 167.051 168.09 167.063 168.186Z" fill="#8C83DD"/>
<path d="M170.709 169.209C170.288 169.264 170.056 169.129 170.014 168.801C169.996 168.671 170.051 168.51 170.179 168.318C170.307 168.127 170.482 167.87 170.705 167.549C171.024 167.087 171.269 166.707 171.438 166.408C171.607 166.11 171.679 165.869 171.656 165.686C171.638 165.551 171.585 165.448 171.499 165.378C171.412 165.307 171.312 165.28 171.199 165.294C171.099 165.307 171.011 165.358 170.935 165.448C170.858 165.537 170.8 165.667 170.76 165.835C170.719 166.026 170.669 166.17 170.611 166.265C170.553 166.362 170.454 166.418 170.315 166.436C170.162 166.456 170.032 166.423 169.921 166.338C169.811 166.253 169.745 166.129 169.723 165.963C169.708 165.842 169.717 165.698 169.753 165.532C169.789 165.367 169.851 165.212 169.938 165.069C170.07 164.855 170.235 164.683 170.434 164.554C170.634 164.424 170.858 164.344 171.105 164.311C171.331 164.281 171.54 164.29 171.732 164.336C171.923 164.382 172.092 164.458 172.238 164.565C172.385 164.672 172.504 164.804 172.595 164.963C172.687 165.12 172.745 165.298 172.77 165.493C172.795 165.68 172.783 165.868 172.735 166.057C172.686 166.247 172.607 166.447 172.495 166.655C172.383 166.865 172.241 167.088 172.068 167.327C171.897 167.566 171.701 167.828 171.482 168.113L172.453 167.986C172.952 167.921 173.223 168.052 173.266 168.378C173.308 168.703 173.08 168.899 172.581 168.963L170.709 169.209Z" fill="#8C83DD"/>
<path d="M214.895 195.926L213.259 196.14C213.047 196.168 212.882 196.156 212.768 196.105C212.652 196.053 212.586 195.956 212.567 195.813C212.552 195.691 212.563 195.58 212.603 195.483C212.644 195.385 212.687 195.282 212.735 195.174L213.833 192.811C213.922 192.614 214.02 192.469 214.127 192.378C214.234 192.287 214.376 192.23 214.549 192.207C214.793 192.176 215.003 192.238 215.18 192.393C215.357 192.549 215.469 192.807 215.516 193.168L215.738 194.869C215.768 194.86 215.795 194.853 215.822 194.848C215.847 194.842 215.871 194.838 215.893 194.836C216.076 194.812 216.222 194.837 216.334 194.911C216.445 194.985 216.509 195.087 216.526 195.217C216.568 195.543 216.379 195.734 215.958 195.788L215.859 195.801L215.923 196.29C215.947 196.472 215.92 196.618 215.842 196.728C215.763 196.837 215.643 196.903 215.483 196.924C215.183 196.963 215.006 196.782 214.954 196.383L214.895 195.926ZM214.774 194.995L214.543 193.222L213.686 195.137L214.774 194.995Z" fill="#FF6464"/>
<path d="M217.569 194.014C217.254 193.804 217.073 193.514 217.025 193.145C217.001 192.962 217.015 192.787 217.069 192.619C217.123 192.451 217.208 192.299 217.324 192.164C217.442 192.03 217.587 191.917 217.761 191.826C217.934 191.734 218.127 191.675 218.34 191.647C218.553 191.619 218.756 191.627 218.947 191.671C219.138 191.715 219.307 191.786 219.456 191.886C219.603 191.986 219.725 192.111 219.82 192.26C219.914 192.409 219.973 192.575 219.997 192.757C220.045 193.126 219.943 193.453 219.694 193.737C220.142 193.953 220.399 194.313 220.465 194.816C220.492 195.025 220.477 195.227 220.421 195.422C220.365 195.617 220.272 195.792 220.142 195.949C220.012 196.105 219.849 196.235 219.653 196.34C219.456 196.446 219.232 196.514 218.981 196.548C218.729 196.581 218.494 196.571 218.278 196.52C218.061 196.468 217.871 196.384 217.704 196.267C217.539 196.149 217.404 196.003 217.3 195.829C217.195 195.655 217.129 195.464 217.102 195.255C217.07 195.007 217.092 194.778 217.168 194.567C217.244 194.356 217.378 194.171 217.569 194.014ZM218.048 193.11C218.057 193.175 218.078 193.235 218.112 193.291C218.145 193.346 218.187 193.394 218.236 193.434C218.285 193.474 218.339 193.503 218.4 193.522C218.46 193.541 218.522 193.546 218.587 193.537C218.722 193.52 218.83 193.457 218.911 193.349C218.991 193.242 219.023 193.121 219.006 192.986C218.988 192.846 218.926 192.735 218.82 192.652C218.714 192.568 218.594 192.535 218.459 192.553C218.329 192.569 218.223 192.632 218.142 192.74C218.061 192.848 218.029 192.971 218.048 193.11ZM218.145 195.019C218.156 195.111 218.184 195.196 218.228 195.274C218.27 195.353 218.326 195.416 218.392 195.468C218.458 195.519 218.53 195.557 218.608 195.582C218.686 195.607 218.77 195.614 218.856 195.603C218.939 195.592 219.016 195.564 219.088 195.52C219.159 195.475 219.221 195.42 219.272 195.353C219.323 195.287 219.359 195.212 219.382 195.127C219.403 195.043 219.408 194.952 219.396 194.856C219.37 194.665 219.289 194.513 219.151 194.401C219.012 194.289 218.856 194.244 218.682 194.266C218.596 194.277 218.517 194.306 218.448 194.35C218.379 194.395 218.319 194.451 218.268 194.52C218.218 194.588 218.181 194.665 218.159 194.749C218.137 194.834 218.133 194.924 218.145 195.019Z" fill="#FF6464"/>
<path d="M165.936 234.772C164.549 234.772 163.368 233.735 163.189 232.358C163.093 231.623 163.289 230.896 163.74 230.309C164.192 229.722 164.845 229.345 165.58 229.25C165.701 229.234 165.822 229.227 165.941 229.227C167.328 229.227 168.508 230.264 168.688 231.641C168.886 233.157 167.813 234.551 166.297 234.749C166.176 234.764 166.055 234.772 165.936 234.772Z" fill="white"/>
<path d="M165.942 229.843C167.009 229.843 167.936 230.634 168.078 231.72C168.232 232.902 167.399 233.984 166.218 234.138C166.124 234.15 166.029 234.157 165.936 234.157C164.869 234.157 163.942 233.365 163.8 232.278C163.646 231.097 164.479 230.015 165.66 229.861C165.755 229.848 165.849 229.843 165.942 229.843ZM165.942 228.61C165.795 228.61 165.647 228.62 165.501 228.639C163.648 228.881 162.337 230.585 162.578 232.438C162.798 234.12 164.242 235.389 165.936 235.389C166.083 235.389 166.231 235.38 166.377 235.36C168.23 235.119 169.541 233.414 169.3 231.561C169.08 229.879 167.637 228.61 165.942 228.61Z" fill="#FF6464"/>
<path d="M210.447 240.98C209.06 240.98 207.879 239.942 207.699 238.565C207.502 237.049 208.574 235.655 210.091 235.457C210.212 235.441 210.333 235.434 210.452 235.434C211.838 235.434 213.019 236.471 213.199 237.848C213.295 238.583 213.098 239.31 212.647 239.897C212.196 240.484 211.542 240.861 210.808 240.956C210.687 240.973 210.566 240.98 210.447 240.98Z" fill="white"/>
<path d="M210.452 236.05C211.519 236.05 212.446 236.842 212.588 237.928C212.742 239.11 211.909 240.192 210.728 240.346C210.633 240.358 210.539 240.365 210.446 240.365C209.379 240.365 208.452 239.573 208.311 238.486C208.157 237.305 208.989 236.223 210.17 236.069C210.265 236.057 210.359 236.05 210.452 236.05ZM210.452 234.818C210.305 234.818 210.157 234.828 210.011 234.847C208.158 235.088 206.847 236.793 207.088 238.646C207.308 240.328 208.751 241.597 210.446 241.597C210.593 241.597 210.742 241.587 210.888 241.568C212.741 241.326 214.051 239.622 213.81 237.769C213.591 236.087 212.147 234.818 210.452 234.818Z" fill="#8C83DD"/>
<path d="M394.539 174.863L197.868 97.5163L164.148 88.7949L163.675 90.746L191.008 103.405L194.525 102.828L349.422 162.813L350.029 167.921L391.926 183.369L394.539 174.863Z" fill="#A2B2D6"/>
<path d="M394.54 174.863L197.514 98.9837L201.814 87.7734L398.94 163.694L399.268 167.796L397.607 172.127L394.54 174.863Z" fill="#FABD15"/>
<path d="M399.269 167.796L200.117 91.5448L201.813 87.7734L398.939 163.694L399.269 167.796Z" fill="#FFE800"/>
<path d="M394.54 174.862L197.514 98.9836L199.056 94.9639L397.608 172.126L394.54 174.862Z" fill="#ED9430"/>
<path d="M201.813 87.7734C201.813 87.7734 202.796 88.3588 202.492 89.1197C202.047 90.2339 200.873 90.2213 200.873 90.2213C200.873 90.2213 202.159 91.7647 201.328 93.7828C200.31 96.2543 198.524 96.2738 198.524 96.2738C198.524 96.2738 199.584 97.136 199.161 98.0983C198.717 99.1103 197.513 98.9837 197.513 98.9837L195.136 91.7573L201.813 87.7734Z" fill="#FEA261"/>
<path d="M166.677 79.5537L165.896 81.5923L175.792 87.0353L177.674 82.126L166.677 79.5537Z" fill="#414042"/>
<path d="M201.172 88.6757L177.673 82.127L175.791 87.0363L197.512 98.9832L201.172 88.6757Z" fill="#FEA261"/>
<path d="M201.813 87.773L177.673 82.127L176.625 84.8611L199.748 93.1553L200.874 90.2202C200.881 90.2202 202.049 90.2297 202.492 89.1192C202.796 88.3588 201.813 87.773 201.813 87.773Z" fill="#FFDB94"/>
<g opacity="0.5">
<path d="M177.078 83.6794L166.371 80.3525L166.211 80.7696L176.447 85.3215L177.078 83.6794Z" fill="#8C8C99"/>
</g>
<path d="M200.874 90.2195L177.079 83.6797L176.448 85.3223L198.525 96.2726C198.525 96.2726 200.317 96.1756 201.287 93.878C202.244 91.6127 200.874 90.2195 200.874 90.2195Z" fill="#FFBE92"/>
</svg>
