<svg width="408" height="400" viewBox="0 0 408 400" fill="none" xmlns="http://www.w3.org/2000/svg">
<path d="M213.335 6.12217C169.881 23.4003 165.718 67.5678 126.592 71.3582C92.5007 74.6609 79.5426 42.6895 55.6213 48.418C19.1825 57.1445 -3.72733 144.019 10.9074 215.451C26.0187 289.21 89.5102 387.262 194.696 393.954C312.789 401.466 402.145 288.648 407.601 189.643C408.191 178.936 411.675 89.2256 343.09 36.231C339.663 33.5832 272.078 -17.2353 213.335 6.12217Z" fill="#F4F7FA"/>
<path d="M287.946 64.6862L298.833 44.4258L305.27 66.5071L320.132 48.9529L321.837 71.8899L340.024 57.8094L336.923 80.5998L357.64 70.6079L349.868 92.2556L372.21 86.7895L360.107 106.348L383.097 105.647L367.192 122.262L389.826 126.355L370.814 139.301L392.102 148.011L370.814 156.72L389.826 169.666L367.192 173.759L383.097 190.374L360.107 189.673L372.21 209.232L349.868 203.765L357.64 225.413L336.923 215.421L340.024 238.212L321.837 224.131L320.132 247.068L305.27 229.514L298.833 251.595L287.946 231.335L277.059 251.595L270.622 229.514L255.76 247.068L254.055 224.131L235.868 238.212L238.969 215.421L218.252 225.413L226.024 203.765L203.683 209.232L215.785 189.673L192.795 190.374L208.7 173.759L186.067 169.666L205.078 156.72L183.791 148.011L205.078 139.301L186.067 126.355L208.7 122.262L192.795 105.647L215.785 106.348L203.683 86.7895L226.024 92.2556L218.252 70.6079L238.969 80.5998L235.868 57.8094L254.055 71.8899L255.76 48.9529L270.622 66.5071L277.059 44.4258L287.946 64.6862Z" fill="url(#paint0_linear_3355_318)"/>
<path d="M363.379 163.855L383.791 157.852L365.025 147.826L383.743 137.71L363.303 131.804L379.508 118.017L358.287 116.491L371.272 99.636L350.196 102.555L359.393 83.3689L339.385 90.6057L344.392 69.9267L326.326 81.1654L326.924 59.8971L311.589 74.6466L307.753 53.7187L295.82 71.3339L287.715 51.6611L279.705 71.3724L267.688 53.8146L263.952 74.7604L248.547 60.0847L249.247 81.3498L231.127 70.1977L236.233 90.8526L216.19 83.7114L225.479 102.853L204.39 100.035L217.456 116.828L196.241 118.456L212.513 132.165L192.101 138.168L210.867 148.195L192.149 158.311L212.589 164.216L196.384 178.003L217.606 179.53L204.621 196.384L225.696 193.465L216.499 212.652L236.507 205.415L231.5 226.094L249.566 214.855L248.968 236.123L264.303 221.374L268.139 242.302L280.072 224.686L288.177 244.359L296.186 224.648L308.204 242.206L311.94 221.26L327.345 235.936L326.645 214.671L344.765 225.823L339.659 205.168L359.702 212.309L350.413 193.167L371.502 195.985L358.436 179.193L379.651 177.564L363.379 163.855Z" fill="url(#paint1_linear_3355_318)"/>
<path d="M371 148.011C371 190.502 339.084 225.545 297.918 230.47C294.65 230.865 291.323 231.064 287.946 231.064C242.078 231.064 204.893 193.879 204.893 148.011C204.893 127.119 212.604 108.029 225.34 93.4373C240.567 75.986 262.97 64.957 287.946 64.957C333.815 64.9572 371 102.143 371 148.011Z" fill="url(#paint2_linear_3355_318)"/>
<path opacity="0.2" d="M326.058 196.987C321.855 208.697 311.979 220.207 297.918 230.469C294.65 230.864 291.323 231.063 287.946 231.063C242.078 231.063 204.893 193.878 204.893 148.01C204.893 127.118 212.604 108.028 225.34 93.4365C225.998 99.4821 229.098 106.218 236.605 113.139C244.284 120.206 256.579 127.472 275.606 134.371C321.011 150.842 334.2 174.28 326.058 196.987Z" fill="url(#paint3_linear_3355_318)"/>
<path opacity="0.3" d="M287.947 210.067C322.219 210.067 350.003 182.283 350.003 148.011C350.003 113.738 322.219 85.9551 287.947 85.9551C253.674 85.9551 225.891 113.738 225.891 148.011C225.891 182.283 253.674 210.067 287.947 210.067Z" fill="white"/>
<mask id="mask0_3355_318" style="mask-type:luminance" maskUnits="userSpaceOnUse" x="0" y="102" width="182" height="188">
<path d="M181.832 102.936H0.941895V289.773H181.832V102.936Z" fill="white"/>
</mask>
<g mask="url(#mask0_3355_318)">
<mask id="mask1_3355_318" style="mask-type:luminance" maskUnits="userSpaceOnUse" x="74" y="130" width="104" height="227">
<path d="M102.727 356.516L139.545 353.347C139.545 353.347 144.85 333.864 134.68 321.312C113.93 295.702 137.809 279.316 146.783 270.957C160.317 258.351 166.747 241.339 144.797 236.064C122.847 230.788 141.443 195.874 166.235 178.665C190.496 161.825 174.56 108.982 118.704 140.608C85.3473 159.496 93.9552 195.845 93.9383 215.234C93.9215 234.624 65.4353 238.68 77.255 261.347C87.3512 280.709 104.51 293.984 93.5653 308.835C82.6206 323.685 82.698 339.274 102.727 356.516Z" fill="white"/>
</mask>
<g mask="url(#mask1_3355_318)">
<path d="M102.727 356.516L139.545 353.347C139.545 353.347 144.85 333.864 134.68 321.312C113.93 295.702 137.809 279.316 146.783 270.957C160.317 258.351 165.449 243.126 147.179 235.11C126.506 226.039 141.443 195.874 166.235 178.665C190.496 161.825 174.56 108.982 118.704 140.608C85.3473 159.496 93.9552 195.845 93.9383 215.234C93.9215 234.624 65.4353 238.68 77.255 261.347C87.3512 280.709 104.51 293.984 93.5653 308.835C82.6206 323.685 82.698 339.274 102.727 356.516Z" fill="url(#paint4_linear_3355_318)"/>
</g>
<mask id="mask2_3355_318" style="mask-type:luminance" maskUnits="userSpaceOnUse" x="74" y="130" width="104" height="227">
<path d="M102.727 356.516L139.545 353.347C139.545 353.347 144.85 333.864 134.68 321.312C113.93 295.702 137.809 279.316 146.783 270.957C160.317 258.351 166.747 241.339 144.797 236.064C122.847 230.788 141.443 195.874 166.235 178.665C190.496 161.825 174.56 108.982 118.704 140.608C85.3473 159.496 93.9552 195.845 93.9383 215.234C93.9215 234.624 65.4353 238.68 77.255 261.347C87.3512 280.709 104.51 293.984 93.5653 308.835C82.6206 323.685 82.698 339.274 102.727 356.516Z" fill="white"/>
</mask>
<g mask="url(#mask2_3355_318)">
<g opacity="0.5">
<path d="M118.596 358.662C118.468 358.194 105.824 311.337 107.294 261.099C108.158 231.546 113.665 206.61 123.659 186.985C136.189 162.384 155.827 146.113 182.029 138.624L182.448 140.088C124.039 156.783 110.168 215.117 108.817 261.113C107.348 311.128 119.938 357.794 120.066 358.259L118.596 358.662Z" fill="white"/>
<path d="M118.854 197.696C113.402 172.081 120.083 134.55 120.151 134.174L121.65 134.445C121.583 134.819 114.955 172.06 120.344 197.38L118.854 197.696Z" fill="white"/>
<path d="M128.204 181.816L127.291 180.598C152.493 161.713 178.122 167.564 178.38 167.624L178.026 169.105C177.777 169.042 152.812 163.377 128.204 181.816Z" fill="white"/>
<path d="M108.13 293.734C113.751 255.763 163.748 242.04 164.239 241.998L164.37 243.515L164.305 242.757L164.432 243.507C163.944 243.607 115.097 257.079 109.637 293.957L108.13 293.734Z" fill="white"/>
<path d="M107.337 278.501C100.558 255.859 74.0766 242.093 73.8101 241.957L74.5035 240.601C74.7759 240.74 101.833 254.806 108.796 278.064L107.337 278.501Z" fill="white"/>
</g>
</g>
<path d="M110.329 327.201C107.967 331.531 105.939 336.475 108.032 341.829C109.018 344.354 110.896 346.291 115.486 349.127C124.104 354.451 138.049 363.066 148.814 356.991C149.81 356.429 153.878 354.911 155.031 350.814C157.125 343.376 159.562 329.565 150.917 324.132C138.82 316.53 145.232 292.435 147.161 279.19C152.396 243.255 113.143 243.965 116.179 197.25C116.986 184.825 122.681 161.4 112.858 150.813C101.668 138.753 92.2268 149.238 85.1751 139.304C74.1536 123.778 55.0405 117.209 42.4401 131.609C30.0039 145.821 41.9518 176.531 74.9575 202.757C96.5048 224.253 96.4675 230.261 93.7071 244.716C91.7737 254.84 80.2837 280.789 93.4388 292.321C106.594 303.853 116.427 316.025 110.329 327.201Z" fill="url(#paint5_linear_3355_318)"/>
<mask id="mask3_3355_318" style="mask-type:luminance" maskUnits="userSpaceOnUse" x="37" y="123" width="120" height="241">
<path d="M118.087 363.082L152.597 356.579C152.597 356.579 163.013 331.735 150.916 324.133C138.819 316.53 145.231 292.436 147.161 279.191C152.395 243.256 113.143 243.966 116.178 197.251C116.986 184.826 122.68 161.401 112.858 150.814C101.667 138.754 92.2261 149.239 85.1745 139.305C74.1531 123.779 55.0399 117.21 42.4395 131.61C30.0035 145.822 41.9512 176.532 74.957 202.758C96.5043 224.254 96.467 230.262 93.7067 244.717C91.7733 254.841 80.2832 280.79 93.4384 292.322C106.594 303.853 116.427 316.026 110.329 327.202C101.05 344.208 118.087 363.082 118.087 363.082Z" fill="white"/>
</mask>
<g mask="url(#mask3_3355_318)">
<g opacity="0.5">
<path d="M132.902 358.532C132.661 354.397 132.367 350.232 132.029 346.153C129.52 315.942 124.282 287.06 116.46 260.309C109.834 237.652 101.267 216.204 90.9968 196.561C82.7407 180.772 73.3432 166.057 63.0662 152.827C55.8468 143.533 48.2712 135.063 40.5498 127.652C39.2189 126.374 37.7756 125.133 36.3798 123.932C34.4858 122.303 32.5271 120.618 30.7832 118.791L31.7663 117.853C33.4644 119.631 35.3972 121.294 37.2662 122.902C38.6758 124.114 40.1334 125.368 41.4912 126.671C49.2598 134.127 56.8799 142.647 64.1399 151.993C74.4664 165.287 83.9077 180.07 92.2014 195.932C102.513 215.653 111.114 237.184 117.764 259.927C125.611 286.766 130.867 315.738 133.383 346.04C133.723 350.131 134.018 354.307 134.259 358.453L132.902 358.532Z" fill="#FCFDFE"/>
<path d="M102.523 221.015C91.5087 192.857 106.018 143.382 106.166 142.886L107.469 143.274C107.322 143.766 92.9452 192.798 103.789 220.52L102.523 221.015Z" fill="#FCFDFE"/>
<path d="M126.138 301.498C121.073 282.177 86.2487 265.055 85.8975 264.884L86.4916 263.661C87.9483 264.369 122.23 281.227 127.453 301.153L126.138 301.498Z" fill="#FCFDFE"/>
<path d="M128.1 312.915C127.036 299.41 132.76 280.499 144.218 259.667C144.485 259.181 144.654 258.878 144.699 258.776L145.248 259.022L146.011 258.972C146.026 259.2 146.026 259.2 145.409 260.322C134.077 280.925 128.412 299.565 129.455 312.809L128.1 312.915Z" fill="#FCFDFE"/>
<path d="M68.9733 160.68C62.0119 145.442 58.2383 127.857 56.9984 122.078C56.798 121.145 56.6251 120.339 56.5747 120.193L57.838 119.691C57.916 119.882 58.0106 120.316 58.3273 121.793C59.5599 127.535 63.3099 145.012 70.2096 160.116L68.9733 160.68Z" fill="#FCFDFE"/>
<path d="M41.7666 170.628L41.835 169.271C43.1619 169.337 74.4563 171.048 84.9244 182.806L83.9091 183.71C73.8185 172.378 42.0856 170.644 41.7666 170.628Z" fill="#FCFDFE"/>
</g>
</g>
<path d="M123.555 312.613C129.413 311.635 135.198 307.07 137.38 301.514C137.903 300.181 139.78 294.817 137.203 291.272C135.751 289.274 133.712 288.662 132.218 288.308C120.846 285.612 119.437 265.966 122.099 258.834C125.394 250.005 132.643 229.292 115.127 224.846C100.546 221.145 90.3803 221.737 88.3105 203.359C86.2407 184.98 75.5117 174.061 58.8551 176.125C41.3265 178.297 25.5425 155.71 11.5806 164.379C-12.7468 179.483 12.3606 218.795 43.5892 228.797C74.8178 238.8 57.9322 250.821 57.9814 265.957C57.9862 267.447 58.5894 270.989 60.3076 274.594C65.2858 285.038 75.9044 285.193 91.3125 293.486C110.822 303.988 113.427 314.305 123.555 312.613Z" fill="url(#paint6_linear_3355_318)"/>
<mask id="mask4_3355_318" style="mask-type:luminance" maskUnits="userSpaceOnUse" x="1" y="162" width="137" height="152">
<path d="M120.361 313.215C126.691 313.036 133.71 309.336 136.468 303.422C138.27 299.557 138.898 293.359 135.826 290.215C134.571 288.93 133.248 288.552 132.218 288.308C120.846 285.611 119.437 265.966 122.099 258.833C125.394 250.005 132.643 229.292 115.127 224.846C100.546 221.145 90.3802 221.737 88.3105 203.359C86.2406 184.98 75.5116 174.06 58.855 176.125C41.3265 178.297 25.5424 155.71 11.5807 164.379C-12.7469 179.483 12.3607 218.795 43.5891 228.797C74.8177 238.8 57.9321 250.821 57.9814 265.957C57.9866 267.518 58.5897 271 60.3081 274.594C65.5339 285.526 76.6257 284.739 92.3157 294.248C108.984 304.35 110.107 313.505 120.361 313.215Z" fill="white"/>
</mask>
<g mask="url(#mask4_3355_318)">
<g opacity="0.5">
<path d="M118.726 313.073C102.085 250.532 53.6293 191.437 0.889648 169.364L1.51722 167.865C28.295 179.072 54.0795 199.541 76.0833 227.059C96.8019 252.97 112.504 283.369 120.296 312.655L118.726 313.073Z" fill="#FCFDFE"/>
<path d="M103.986 270.019C102.488 245.602 122.159 225.363 122.358 225.161L123.515 226.302C123.322 226.499 104.155 246.238 105.608 269.919L103.986 270.019Z" fill="#FCFDFE"/>
<path d="M55.8018 270.466L55.8045 268.841C57.6281 268.844 100.616 269.16 113.528 289.935L112.147 290.793C99.7129 270.783 56.2393 270.466 55.8018 270.466Z" fill="#FCFDFE"/>
<path d="M71.3564 220.286C62.3991 202.677 72.091 175.252 72.508 174.093L74.0372 174.643C73.9375 174.92 64.1677 202.569 72.8052 219.549L71.3564 220.286Z" fill="#FCFDFE"/>
<path d="M-3.86318 192.026L-4.31689 190.465C-3.14589 190.124 24.596 182.238 44.0724 192.625L43.3081 194.059C24.409 183.981 -3.58232 191.944 -3.86318 192.026Z" fill="#FCFDFE"/>
</g>
</g>
</g>
<path d="M225.445 394.023L199.101 394.454L199.184 393.36L183.319 394.751V399.759L199.312 399.992L199.193 399.381L225.445 398.942V394.023Z" fill="url(#paint7_linear_3355_318)"/>
<path d="M238.33 306.58V393.818L204.134 394.384V306.934L238.33 306.58Z" fill="url(#paint8_linear_3355_318)"/>
<path d="M254.684 399.064L199.178 400.001V393.225L254.684 392.314V399.064Z" fill="url(#paint9_linear_3355_318)"/>
<path opacity="0.4" d="M238.33 333.32V350.915C234.365 352.18 229.561 352.954 224.233 353.026C215.891 353.138 208.594 351.493 204.134 348.893V336.223C208.594 333.489 215.891 331.667 224.233 331.568C229.561 331.504 234.365 332.151 238.33 333.32Z" fill="url(#paint10_linear_3355_318)"/>
<path d="M354.58 335.192L319.642 184.639C318.771 180.884 315.062 177.905 311.462 177.669L65.854 161.522C61.1821 161.215 57.8136 164.127 58.4004 168.404L82.132 341.312C82.7986 346.167 87.3723 350.12 92.305 349.987L349.449 343.076C353.187 342.975 355.553 339.385 354.58 335.192Z" fill="url(#paint11_linear_3355_318)"/>
<path d="M323.391 177.631L76.518 161.523C71.8228 161.217 68.4373 164.121 69.0273 168.388L92.8777 340.859C93.5474 345.702 98.1441 349.645 103.102 349.514L361.58 342.646C365.337 342.547 367.717 338.965 366.739 334.782L331.615 184.585C330.739 180.838 327.01 177.867 323.391 177.631Z" fill="url(#paint12_linear_3355_318)"/>
<path d="M108.357 173.789L111.916 197.126C112.151 198.666 111.081 199.855 109.521 199.781L85.301 198.636C83.7011 198.56 82.1699 197.23 81.9487 195.669L78.5969 172.003C78.3797 170.47 79.5451 169.308 81.1312 169.405L105.116 170.88C106.662 170.975 108.126 172.277 108.357 173.789Z" fill="url(#paint13_linear_3355_318)"/>
<path d="M113.406 206.892L117.052 230.805C117.293 232.383 116.216 233.624 114.64 233.576L90.1799 232.824C88.5639 232.774 87.0142 231.434 86.7875 229.833L83.3518 205.575C83.1294 204.004 84.3039 202.791 85.9058 202.863L110.127 203.961C111.689 204.031 113.169 205.343 113.406 206.892Z" fill="url(#paint14_linear_3355_318)"/>
<path d="M118.578 240.813L122.316 265.323C122.563 266.94 121.478 268.235 119.887 268.214L95.1817 267.876C93.5493 267.854 91.9809 266.502 91.7483 264.861L88.2254 239.988C87.9973 238.377 89.1813 237.111 90.7993 237.157L115.261 237.858C116.838 237.903 118.336 239.226 118.578 240.813Z" fill="url(#paint15_linear_3355_318)"/>
<path d="M123.881 275.582L127.713 300.712C127.966 302.37 126.873 303.721 125.267 303.728L100.312 303.827C98.6628 303.834 97.075 302.47 96.8365 300.787L93.2232 275.275C92.9892 273.623 94.1827 272.302 95.8172 272.321L120.524 272.604C122.117 272.622 123.633 273.955 123.881 275.582Z" fill="url(#paint16_linear_3355_318)"/>
<path d="M129.318 311.233L133.248 337.005C133.507 338.706 132.407 340.116 130.785 340.152L105.575 340.71C103.909 340.747 102.301 339.372 102.057 337.645L98.3494 311.469C98.1094 309.775 99.3124 308.396 100.964 308.386L125.92 308.23C127.529 308.22 129.063 309.564 129.318 311.233Z" fill="url(#paint17_linear_3355_318)"/>
<path d="M142.248 175.837L146.033 198.795C146.283 200.31 145.331 201.482 143.824 201.41L120.417 200.303C118.872 200.23 117.366 198.924 117.129 197.388L113.535 174.111C113.302 172.603 114.449 171.459 115.981 171.553L139.118 172.979C140.613 173.07 142.003 174.35 142.248 175.837Z" fill="url(#paint18_linear_3355_318)"/>
<path d="M147.617 208.4L151.494 231.915C151.749 233.466 150.792 234.689 149.271 234.642L125.642 233.916C124.082 233.868 122.558 232.551 122.315 230.977L118.632 207.128C118.394 205.583 119.549 204.39 121.096 204.46L144.451 205.52C145.96 205.588 147.366 206.877 147.617 208.4Z" fill="url(#paint19_linear_3355_318)"/>
<path d="M153.116 241.755L157.088 265.846C157.35 267.435 156.387 268.71 154.851 268.689L130.996 268.364C129.421 268.342 127.879 267.014 127.63 265.401L123.856 240.958C123.611 239.375 124.775 238.131 126.337 238.176L149.914 238.852C151.437 238.895 152.859 240.194 153.116 241.755Z" fill="url(#paint20_linear_3355_318)"/>
<path d="M158.75 275.929L162.821 300.619C163.089 302.248 162.121 303.578 160.571 303.584L136.485 303.679C134.895 303.686 133.334 302.346 133.079 300.693L129.21 275.634C128.959 274.011 130.131 272.714 131.709 272.732L155.511 273.004C157.048 273.021 158.487 274.33 158.75 275.929Z" fill="url(#paint21_linear_3355_318)"/>
<path d="M164.525 310.952L168.698 336.263C168.973 337.933 167.999 339.32 166.434 339.355L142.114 339.892C140.508 339.928 138.928 338.577 138.666 336.881L134.698 311.183C134.441 309.519 135.622 308.166 137.215 308.156L161.247 308.004C162.799 307.994 164.254 309.313 164.525 310.952Z" fill="url(#paint22_linear_3355_318)"/>
<path d="M175.117 177.821C174.858 176.355 173.553 175.096 172.106 175.007L149.735 173.629C148.252 173.538 147.265 174.667 147.513 176.152L151.332 199.048C151.584 200.56 153.024 201.845 154.519 201.916L177.016 202.984C178.475 203.054 179.375 201.899 179.112 200.407L175.117 177.821Z" fill="url(#paint23_linear_3355_318)"/>
<path d="M180.783 209.86L184.874 232.99C185.144 234.516 184.251 235.719 182.781 235.673L160.024 234.973C158.517 234.927 157.101 233.634 156.842 232.087L152.93 208.632C152.677 207.112 153.708 205.937 155.203 206.005L177.73 207.028C179.189 207.095 180.518 208.361 180.783 209.86Z" fill="url(#paint24_linear_3355_318)"/>
<path d="M186.585 242.667L190.774 266.355C190.796 266.481 190.893 266.61 190.897 266.73C190.965 268.115 190.073 269.17 188.71 269.152L165.725 268.839C164.203 268.818 162.751 267.514 162.487 265.929L158.479 241.901C158.219 240.344 159.256 239.119 160.765 239.162L183.497 239.814C184.969 239.856 186.313 241.132 186.585 242.667Z" fill="url(#paint25_linear_3355_318)"/>
<path d="M192.527 276.265L196.818 300.531C197.102 302.132 196.2 303.439 194.703 303.445L171.527 303.539C169.992 303.545 168.542 302.232 168.271 300.608L164.164 275.984C163.898 274.39 164.942 273.112 166.465 273.13L189.405 273.392C190.89 273.408 192.249 274.694 192.527 276.265Z" fill="url(#paint26_linear_3355_318)"/>
<path d="M198.614 310.686L203.011 335.551C203.301 337.191 202.396 338.554 200.885 338.587L177.494 339.109C175.944 339.144 174.478 337.82 174.2 336.155L169.99 310.914C169.717 309.279 170.767 307.948 172.305 307.939L195.456 307.79C196.955 307.781 198.329 309.075 198.614 310.686Z" fill="url(#paint27_linear_3355_318)"/>
<path d="M206.899 179.736C206.627 178.294 205.37 177.056 203.969 176.97L182.45 175.637C181.015 175.548 180.204 176.661 180.465 178.123L184.494 200.656C184.76 202.144 186.055 203.406 187.501 203.474L209.18 204.507C210.592 204.574 211.364 203.436 211.087 201.968L206.899 179.736Z" fill="url(#paint28_linear_3355_318)"/>
<path d="M212.841 211.273C212.563 209.796 211.292 208.55 209.879 208.486L188.176 207.497C186.728 207.431 185.913 208.591 186.181 210.088L190.305 233.156C190.578 234.68 191.887 235.951 193.346 235.995L215.213 236.67C216.636 236.714 217.411 235.528 217.128 234.025L212.841 211.273Z" fill="url(#paint29_linear_3355_318)"/>
<path d="M218.922 243.551C218.637 242.04 217.353 240.785 215.928 240.744L194.036 240.115C192.576 240.073 191.757 241.283 192.032 242.816L196.255 266.438C196.534 267.998 197.858 269.278 199.33 269.298L221.387 269.597C222.823 269.617 223.6 268.381 223.31 266.843L218.922 243.551Z" fill="url(#paint30_linear_3355_318)"/>
<path d="M225.147 276.591L229.642 300.447C229.938 302.02 229.11 303.305 227.663 303.311L205.407 303.407C203.923 303.413 202.636 302.126 202.351 300.53L198.023 276.326C197.743 274.759 198.614 273.5 200.085 273.517L222.172 273.767C223.608 273.784 224.856 275.045 225.147 276.591Z" fill="url(#paint31_linear_3355_318)"/>
<path d="M231.522 310.427L236.126 334.863C236.43 336.475 235.599 337.814 234.14 337.846L211.687 338.355C210.19 338.389 208.888 337.093 208.596 335.457L204.162 310.657C203.875 309.051 204.749 307.739 206.234 307.73L228.514 307.584C229.962 307.575 231.224 308.845 231.522 310.427Z" fill="url(#paint32_linear_3355_318)"/>
<path d="M238.077 181.594C237.793 180.173 236.375 178.954 235.018 178.871L213.93 177.58C212.541 177.494 211.517 178.59 211.791 180.029L216.009 202.207C216.287 203.671 217.724 204.914 219.123 204.981L240.371 205.983C241.737 206.048 242.738 204.929 242.449 203.484L238.077 181.594Z" fill="url(#paint33_linear_3355_318)"/>
<path d="M244.279 212.643C243.989 211.19 242.555 209.962 241.188 209.9L219.924 208.94C218.524 208.877 217.494 210.016 217.774 211.489L222.091 234.185C222.376 235.684 223.828 236.937 225.239 236.98L246.664 237.637C248.041 237.68 249.047 236.516 248.752 235.038L244.279 212.643Z" fill="url(#paint34_linear_3355_318)"/>
<path d="M250.624 244.411C250.327 242.924 248.878 241.686 247.499 241.647L226.059 241.034C224.647 240.994 223.611 242.179 223.897 243.687L228.316 266.919C228.608 268.454 230.076 269.716 231.499 269.736L253.103 270.031C254.492 270.05 255.503 268.841 255.201 267.328L250.624 244.411Z" fill="url(#paint35_linear_3355_318)"/>
<path d="M257.116 276.917L261.803 300.38C262.112 301.927 261.136 303.184 259.737 303.19L237.953 303.274C236.52 303.279 234.989 302.006 234.69 300.437L230.165 276.643C229.872 275.101 230.867 273.868 232.289 273.884L253.828 274.131C255.088 274.145 256.441 275.169 256.888 276.497C256.936 276.632 257.088 276.776 257.116 276.917Z" fill="url(#paint36_linear_3355_318)"/>
<path d="M263.763 310.194L268.561 334.217C268.878 335.801 267.897 337.109 266.487 337.14L244.518 337.621C243.073 337.654 241.524 336.37 241.219 334.762L236.584 310.392C236.283 308.813 237.283 307.53 238.718 307.521L260.533 307.389C261.933 307.38 263.452 308.638 263.763 310.194Z" fill="url(#paint37_linear_3355_318)"/>
<path d="M267.506 183.388C267.211 181.989 266.021 180.79 264.707 180.71L244.406 179.46C243.061 179.377 242.209 180.457 242.495 181.875L246.891 203.711C247.181 205.152 248.564 206.374 249.918 206.439L270.278 207.407C271.601 207.47 272.341 206.365 272.041 204.942L267.506 183.388Z" fill="url(#paint38_linear_3355_318)"/>
<path d="M273.939 213.96C273.638 212.53 272.435 211.324 271.111 211.263L250.65 210.335C249.294 210.274 248.439 211.398 248.73 212.848L253.228 235.186C253.525 236.661 254.922 237.892 256.287 237.934L276.809 238.567C278.142 238.608 278.883 237.459 278.577 236.003L273.939 213.96Z" fill="url(#paint39_linear_3355_318)"/>
<path d="M280.518 245.227C280.21 243.764 278.995 242.55 277.66 242.512L257.037 241.921C255.671 241.882 254.812 243.051 255.111 244.535L259.713 267.392C260.016 268.901 261.429 270.142 262.805 270.161L283.49 270.442C284.833 270.46 285.576 269.264 285.262 267.776L280.518 245.227Z" fill="url(#paint40_linear_3355_318)"/>
<path d="M287.247 277.21L292.103 300.287C292.423 301.808 291.705 303.052 290.353 303.057L269.415 303.142C268.029 303.148 266.661 301.9 266.35 300.357L261.638 276.956C261.556 276.546 261.606 276.156 261.69 275.807C261.894 274.869 262.649 274.231 263.653 274.242L284.35 274.478C285.694 274.493 286.933 275.714 287.247 277.21Z" fill="url(#paint41_linear_3355_318)"/>
<path d="M294.135 309.938L299.104 333.557C299.432 335.115 298.713 336.408 297.35 336.439L276.244 336.909C274.847 336.94 273.463 335.683 273.145 334.103L268.321 310.145C268.009 308.593 268.932 307.33 270.319 307.321L291.194 307.187C292.548 307.178 293.813 308.408 294.135 309.938Z" fill="url(#paint42_linear_3355_318)"/>
<path d="M296.783 185.13C296.478 183.751 295.127 182.571 293.854 182.493L274.267 181.282C272.964 181.201 272.242 182.267 272.538 183.663L277.103 205.169C277.404 206.589 278.58 207.79 279.892 207.852L299.71 208.791C300.993 208.852 301.785 207.764 301.476 206.362L296.783 185.13Z" fill="url(#paint43_linear_3355_318)"/>
<path d="M303.439 215.244C303.127 213.835 301.763 212.646 300.48 212.588L280.746 211.69C279.433 211.63 278.709 212.739 279.012 214.167L283.68 236.159C283.988 237.611 285.177 238.819 286.499 238.86L306.467 239.474C307.758 239.514 308.553 238.384 308.236 236.951L303.439 215.244Z" fill="url(#paint44_linear_3355_318)"/>
<path d="M310.244 246.033C309.925 244.592 308.546 243.394 307.254 243.357L287.372 242.786C286.048 242.748 285.323 243.902 285.633 245.362L290.408 267.857C290.723 269.342 291.924 270.559 293.256 270.577L313.375 270.851C314.677 270.869 315.474 269.694 315.15 268.229L310.244 246.033Z" fill="url(#paint45_linear_3355_318)"/>
<path d="M317.202 277.516L322.221 300.224C322.552 301.721 321.684 302.938 320.375 302.944L300.204 303.029C298.864 303.034 297.614 301.81 297.292 300.292L292.405 277.27C292.089 275.778 292.777 274.579 294.109 274.594L314.253 274.824C315.553 274.839 316.877 276.044 317.202 277.516Z" fill="url(#paint46_linear_3355_318)"/>
<path d="M324.32 309.719L329.455 332.952C329.794 334.484 328.923 335.748 327.604 335.778L307.28 336.236C305.929 336.266 304.665 335.034 304.336 333.48L299.335 309.919C299.011 308.393 299.7 307.145 301.042 307.136L321.339 307.009C322.65 307.001 323.987 308.214 324.32 309.719Z" fill="url(#paint47_linear_3355_318)"/>
<path d="M324.757 186.817C324.443 185.459 323.142 184.297 321.906 184.221L302.941 183.047C301.678 182.969 301.017 184.021 301.323 185.396L306.04 206.58C306.351 207.978 307.494 209.16 308.766 209.22L327.945 210.13C329.188 210.189 329.912 209.116 329.592 207.736L324.757 186.817Z" fill="url(#paint48_linear_3355_318)"/>
<path d="M331.615 216.485C331.295 215.097 329.98 213.927 328.736 213.87L309.635 213C308.362 212.943 307.7 214.036 308.013 215.441L312.836 237.097C313.154 238.527 314.309 239.716 315.589 239.755L334.906 240.35C336.158 240.388 336.883 239.274 336.557 237.863L331.615 216.485Z" fill="url(#paint49_linear_3355_318)"/>
<path d="M338.624 246.807C338.296 245.388 336.968 244.209 335.715 244.173L316.477 243.621C315.195 243.584 314.533 244.721 314.853 246.158L319.783 268.301C320.109 269.763 321.275 270.96 322.565 270.977L342.022 271.242C343.283 271.259 344.009 270.102 343.675 268.66L338.624 246.807Z" fill="url(#paint50_linear_3355_318)"/>
<path d="M345.787 277.8L350.953 300.15C351.294 301.623 350.494 302.821 349.226 302.826L329.722 302.909C328.424 302.915 327.222 301.711 326.89 300.217L321.846 277.564C321.77 277.224 321.606 276.892 321.649 276.593C321.769 275.611 322.382 274.917 323.373 274.928L342.888 275.151C344.148 275.166 345.453 276.351 345.787 277.8Z" fill="url(#paint51_linear_3355_318)"/>
<path d="M353.114 309.493L358.397 332.35C358.745 333.856 357.943 335.101 356.666 335.129L337.022 335.574C335.714 335.603 334.5 334.391 334.159 332.863L328.999 309.688C328.665 308.187 329.302 306.959 330.601 306.95L350.221 306.826C351.49 306.818 352.771 308.011 353.114 309.493Z" fill="url(#paint52_linear_3355_318)"/>
<path opacity="0.2" d="M98.4691 170.47C101.824 172.323 105.372 174.358 108.783 176.578L111.916 197.127C112.151 198.667 111.081 199.856 109.521 199.782L85.3015 198.637C83.7017 198.561 82.1704 197.231 81.9492 195.67L78.5974 172.004C78.3802 170.471 79.5444 169.309 81.1304 169.406L98.4691 170.47Z" fill="url(#paint53_linear_3355_318)"/>
<path opacity="0.2" d="M113.406 206.894L117.052 230.807C117.293 232.385 116.216 233.626 114.64 233.578L90.1799 232.826C88.5639 232.776 87.0142 231.436 86.7875 229.835L83.3518 205.577C83.1294 204.006 84.3039 202.793 85.9058 202.865L110.127 203.963C111.689 204.033 113.169 205.345 113.406 206.894Z" fill="url(#paint54_linear_3355_318)"/>
<path opacity="0.2" d="M118.579 240.814L122.317 265.324C122.563 266.941 121.478 268.236 119.888 268.215L95.1822 267.877C93.5498 267.855 91.9814 266.503 91.7488 264.862L88.2259 239.989C87.9978 238.378 89.1818 237.112 90.7998 237.158L115.262 237.859C116.839 237.904 118.337 239.227 118.579 240.814Z" fill="url(#paint55_linear_3355_318)"/>
<path opacity="0.2" d="M123.881 275.584L127.714 300.714C127.967 302.372 126.874 303.723 125.268 303.73L100.312 303.829C98.6632 303.835 97.0755 302.472 96.837 300.788L93.2237 275.277C92.9897 273.625 94.1832 272.304 95.8177 272.322L120.525 272.606C122.117 272.624 123.633 273.957 123.881 275.584Z" fill="url(#paint56_linear_3355_318)"/>
<path opacity="0.2" d="M129.318 311.234L133.248 337.006C133.508 338.707 132.407 340.117 130.785 340.153L105.575 340.711C103.909 340.748 102.302 339.373 102.057 337.646L98.3499 311.47C98.1099 309.776 99.3129 308.397 100.964 308.387L125.921 308.231C127.529 308.221 129.064 309.565 129.318 311.234Z" fill="url(#paint57_linear_3355_318)"/>
<path opacity="0.2" d="M117.129 197.389L114.515 180.459C123.156 186.222 131.685 193.085 140.051 201.233L120.404 200.304C118.859 200.231 117.366 198.925 117.129 197.389Z" fill="url(#paint58_linear_3355_318)"/>
<path opacity="0.2" d="M144.328 205.513C145.501 206.733 146.494 207.981 147.758 209.254L151.494 231.915C151.749 233.467 150.792 234.689 149.271 234.642L125.642 233.916C124.082 233.868 122.558 232.551 122.315 230.978L118.633 207.128C118.394 205.584 119.516 204.39 121.063 204.46L144.328 205.513Z" fill="url(#paint59_linear_3355_318)"/>
<path opacity="0.2" d="M153.116 241.756L157.088 265.847C157.35 267.436 156.388 268.711 154.852 268.69L130.997 268.365C129.421 268.343 127.879 267.015 127.63 265.402L123.856 240.959C123.612 239.376 124.776 238.132 126.338 238.177L149.914 238.853C151.437 238.896 152.859 240.195 153.116 241.756Z" fill="url(#paint60_linear_3355_318)"/>
<path opacity="0.2" d="M158.75 275.93L162.821 300.62C163.089 302.249 162.121 303.579 160.571 303.585L136.485 303.68C134.895 303.686 133.334 302.347 133.079 300.694L129.21 275.635C128.959 274.012 130.131 272.715 131.709 272.733L155.511 273.005C157.048 273.022 158.487 274.331 158.75 275.93Z" fill="url(#paint61_linear_3355_318)"/>
<path opacity="0.2" d="M164.525 310.953L168.698 336.264C168.973 337.934 168 339.321 166.435 339.355L142.114 339.893C140.508 339.929 138.928 338.578 138.666 336.882L134.699 311.184C134.442 309.52 135.623 308.167 137.216 308.157L161.248 308.005C162.8 307.995 164.255 309.314 164.525 310.953Z" fill="url(#paint62_linear_3355_318)"/>
<path opacity="0.2" d="M156.843 232.087L154.282 216.733C158.943 222.385 163.335 228.526 167.508 235.204L160.052 234.975C158.545 234.928 157.101 233.635 156.843 232.087Z" fill="url(#paint63_linear_3355_318)"/>
<path opacity="0.2" d="M162.487 265.93L158.479 241.902C158.22 240.345 159.257 239.12 160.766 239.163L170.083 239.43C171.133 241.205 172.166 243.017 173.172 244.865C178.427 254.508 184.419 261.6 190.975 266.733C191.043 268.118 190.112 269.172 188.749 269.153L165.744 268.84C164.223 268.819 162.751 267.515 162.487 265.93Z" fill="url(#paint64_linear_3355_318)"/>
<path opacity="0.2" d="M192.527 276.265L196.818 300.531C197.102 302.132 196.2 303.439 194.703 303.445L171.527 303.539C169.992 303.545 168.542 302.232 168.271 300.608L164.164 275.984C163.898 274.39 164.942 273.112 166.465 273.13L189.405 273.392C190.89 273.408 192.249 274.694 192.527 276.265Z" fill="url(#paint65_linear_3355_318)"/>
<path opacity="0.2" d="M198.614 310.687L203.012 335.552C203.302 337.192 202.396 338.555 200.886 338.588L177.494 339.11C175.944 339.144 174.478 337.821 174.2 336.156L169.99 310.915C169.718 309.28 170.768 307.949 172.305 307.94L195.456 307.791C196.955 307.782 198.329 309.076 198.614 310.687Z" fill="url(#paint66_linear_3355_318)"/>
<path opacity="0.2" d="M202.242 273.54C209.64 276.793 217.688 278.259 225.531 278.629L229.642 300.448C229.939 302.021 229.11 303.307 227.664 303.313L205.407 303.408C203.924 303.414 202.637 302.128 202.351 300.531L198.024 276.328C197.743 274.76 198.564 273.5 200.036 273.517L202.242 273.54Z" fill="url(#paint67_linear_3355_318)"/>
<path opacity="0.2" d="M231.523 310.427L236.127 334.863C236.43 336.475 235.599 337.814 234.14 337.846L211.687 338.355C210.191 338.389 208.889 337.093 208.596 335.457L204.162 310.657C203.875 309.051 204.75 307.739 206.234 307.73L228.515 307.584C229.963 307.575 231.225 308.845 231.523 310.427Z" fill="url(#paint68_linear_3355_318)"/>
<path opacity="0.2" d="M256.83 276.494C256.878 276.629 257.089 276.775 257.117 276.916L261.803 300.378C262.112 301.925 261.136 303.183 259.738 303.189L237.953 303.272C236.52 303.278 234.989 302.005 234.691 300.435L230.563 278.733C239.499 278.725 248.014 277.7 256.83 276.494Z" fill="url(#paint69_linear_3355_318)"/>
<path opacity="0.2" d="M263.763 310.193L268.562 334.216C268.878 335.8 267.898 337.108 266.487 337.139L244.519 337.62C243.073 337.653 241.525 336.369 241.219 334.761L236.584 310.391C236.284 308.812 237.284 307.529 238.719 307.52L260.533 307.388C261.933 307.379 263.453 308.637 263.763 310.193Z" fill="url(#paint70_linear_3355_318)"/>
<path opacity="0.2" d="M287.247 277.211L292.103 300.288C292.423 301.81 291.705 303.053 290.353 303.058L269.415 303.143C268.029 303.149 266.661 301.901 266.35 300.358L261.638 276.958C261.556 276.548 261.606 276.157 261.69 275.808C265.23 275.303 268.796 274.802 272.336 274.343L284.35 274.479C285.694 274.494 286.933 275.715 287.247 277.211Z" fill="url(#paint71_linear_3355_318)"/>
<path opacity="0.2" d="M294.134 309.939L299.104 333.558C299.431 335.116 298.713 336.409 297.349 336.44L276.244 336.91C274.846 336.941 273.462 335.684 273.144 334.104L268.321 310.146C268.008 308.594 268.931 307.331 270.318 307.322L291.193 307.188C292.547 307.179 293.812 308.409 294.134 309.939Z" fill="url(#paint72_linear_3355_318)"/>
<path opacity="0.2" d="M317.203 277.516L322.222 300.224C322.553 301.721 321.685 302.938 320.375 302.944L300.205 303.029C298.864 303.034 297.614 301.81 297.292 300.292L292.406 277.27C292.089 275.778 292.778 274.579 294.109 274.594L314.253 274.824C315.554 274.839 316.877 276.044 317.203 277.516Z" fill="url(#paint73_linear_3355_318)"/>
<path opacity="0.2" d="M324.32 309.718L329.455 332.951C329.794 334.483 328.923 335.747 327.604 335.777L307.28 336.235C305.929 336.265 304.665 335.033 304.336 333.479L299.335 309.918C299.011 308.392 299.7 307.144 301.042 307.135L321.339 307.008C322.65 307 323.987 308.213 324.32 309.718Z" fill="url(#paint74_linear_3355_318)"/>
<path opacity="0.2" d="M350.105 296.475L350.954 300.149C351.295 301.622 350.494 302.82 349.226 302.825L329.722 302.909C328.424 302.914 327.223 301.71 326.89 300.216L321.846 277.563C321.77 277.223 321.607 276.891 321.65 276.592C330.382 279.687 338.83 284.868 346.923 293.164C348.017 294.287 348.672 295.375 350.105 296.475Z" fill="url(#paint75_linear_3355_318)"/>
<path opacity="0.2" d="M353.114 309.493L358.397 332.35C358.745 333.856 357.943 335.101 356.666 335.129L337.022 335.574C335.714 335.603 334.5 334.391 334.159 332.863L328.999 309.688C328.665 308.187 329.302 306.959 330.601 306.95L350.221 306.826C351.49 306.818 352.771 308.011 353.114 309.493Z" fill="url(#paint76_linear_3355_318)"/>
<path d="M128.192 71.4929C128.192 103.704 102.329 129.877 70.2309 130.37C69.9243 130.374 69.6173 130.377 69.3072 130.377C36.7859 130.377 10.4229 104.014 10.4229 71.4929C10.4229 41.2968 33.1537 16.4084 62.437 13.0063C64.6893 12.7434 66.9819 12.6084 69.3072 12.6084C101.829 12.6084 128.192 38.9714 128.192 71.4929Z" fill="url(#paint77_linear_3355_318)"/>
<path d="M69.3074 123.386C97.9679 123.386 121.202 100.152 121.202 71.492C121.202 42.8315 97.9679 19.5977 69.3074 19.5977C40.647 19.5977 17.4131 42.8315 17.4131 71.492C17.4131 100.152 40.647 123.386 69.3074 123.386Z" fill="url(#paint78_linear_3355_318)"/>
<path d="M69.3074 117.839C94.9044 117.839 115.655 97.089 115.655 71.492C115.655 45.895 94.9044 25.1445 69.3074 25.1445C43.7104 25.1445 22.96 45.895 22.96 71.492C22.96 97.089 43.7104 117.839 69.3074 117.839Z" fill="url(#paint79_linear_3355_318)"/>
<path d="M86.02 35.6182L49.8081 76.1059H64.5835L52.5937 106.709L88.8056 66.3427H75.2413L86.02 35.6182Z" fill="url(#paint80_linear_3355_318)"/>
<path opacity="0.2" d="M58.2497 100.64C57.443 109.437 58.7135 116.793 63.0027 123.006C64.835 125.663 67.2188 128.109 70.2304 130.369C69.9238 130.372 69.6168 130.376 69.3067 130.376C36.7854 130.376 10.4224 104.013 10.4224 71.4915C10.4224 41.2955 33.1532 16.407 62.4366 13.0049C64.3131 14.8702 66.1273 17.0642 67.7043 19.623C72.3183 27.0845 74.9683 37.634 71.5626 52.1407C70.9897 54.5829 70.245 57.1382 69.3067 59.8102C67.2113 65.7859 65.3023 71.3746 63.6743 76.602C62.7431 79.599 61.9035 82.4755 61.1735 85.2389C59.7027 90.8166 58.6767 95.9345 58.2497 100.64Z" fill="url(#paint81_linear_3355_318)"/>
<path d="M135.126 71.4929C135.126 103.704 109.263 129.877 77.165 130.37C76.8584 130.374 76.5514 130.377 76.2413 130.377C43.72 130.377 17.3569 104.014 17.3569 71.4929C17.3569 41.2968 40.0878 16.4084 69.3711 13.0063C71.6234 12.7434 73.916 12.6084 76.2413 12.6084C108.763 12.6084 135.126 38.9714 135.126 71.4929Z" fill="url(#paint82_linear_3355_318)"/>
<path d="M76.2415 123.386C104.902 123.386 128.136 100.152 128.136 71.492C128.136 42.8315 104.902 19.5977 76.2415 19.5977C47.5811 19.5977 24.3472 42.8315 24.3472 71.492C24.3472 100.152 47.5811 123.386 76.2415 123.386Z" fill="url(#paint83_linear_3355_318)"/>
<path d="M92.9549 35.6182L56.7432 76.1059H71.5185L59.5286 106.709L95.7405 66.3427H82.1762L92.9549 35.6182Z" fill="white"/>
<path opacity="0.2" d="M65.1852 100.64C64.3785 109.437 65.6491 116.793 69.9382 123.006C71.7705 125.663 74.1544 128.109 77.166 130.369C76.8594 130.372 76.5524 130.376 76.2422 130.376C43.7209 130.376 17.3579 104.013 17.3579 71.4915C17.3579 41.2955 40.0888 16.407 69.3721 13.0049C71.2487 14.8702 73.0628 17.0642 74.6398 19.623C79.2538 27.0845 81.9038 37.634 78.4979 52.1407C77.9251 54.5829 77.1804 57.1382 76.2421 59.8102C74.1467 65.7859 72.2377 71.3746 70.6097 76.602C69.6785 79.599 68.8389 82.4755 68.1089 85.2389C66.6382 90.8166 65.6122 95.9345 65.1852 100.64Z" fill="url(#paint84_linear_3355_318)"/>
<defs>
<linearGradient id="paint0_linear_3355_318" x1="273.248" y1="406.27" x2="292.311" y2="71.3146" gradientUnits="userSpaceOnUse">
<stop stop-color="#FFC444"/>
<stop offset="0.9964" stop-color="#F36F56"/>
</linearGradient>
<linearGradient id="paint1_linear_3355_318" x1="273.027" y1="386.606" x2="292.377" y2="77.1539" gradientUnits="userSpaceOnUse">
<stop stop-color="#FFC444"/>
<stop offset="0.9964" stop-color="#F36F56"/>
</linearGradient>
<linearGradient id="paint2_linear_3355_318" x1="343.426" y1="11.8306" x2="223.594" y2="305.965" gradientUnits="userSpaceOnUse">
<stop stop-color="#FCB148"/>
<stop offset="0.0521" stop-color="#FDBA46"/>
<stop offset="0.1424" stop-color="#FFC244"/>
<stop offset="0.3183" stop-color="#FFC444"/>
<stop offset="0.4849" stop-color="#FDB946"/>
<stop offset="0.7754" stop-color="#F99C4D"/>
<stop offset="0.8658" stop-color="#F8924F"/>
<stop offset="1" stop-color="#F8924F"/>
</linearGradient>
<linearGradient id="paint3_linear_3355_318" x1="204.893" y1="162.25" x2="328.318" y2="162.25" gradientUnits="userSpaceOnUse">
<stop stop-color="#FCB148"/>
<stop offset="0.0521" stop-color="#FDBA46"/>
<stop offset="0.1424" stop-color="#FFC244"/>
<stop offset="0.3183" stop-color="#FFC444"/>
<stop offset="0.4849" stop-color="#FDB946"/>
<stop offset="0.7754" stop-color="#F99C4D"/>
<stop offset="0.8658" stop-color="#F8924F"/>
<stop offset="1" stop-color="#F8924F"/>
</linearGradient>
<linearGradient id="paint4_linear_3355_318" x1="149.431" y1="136.622" x2="94.0758" y2="351.247" gradientUnits="userSpaceOnUse">
<stop offset="0.0036" stop-color="#E38DDD"/>
<stop offset="1" stop-color="#9571F6"/>
</linearGradient>
<linearGradient id="paint5_linear_3355_318" x1="135.814" y1="284.238" x2="-8.40415" y2="68.8312" gradientUnits="userSpaceOnUse">
<stop stop-color="#FF9085"/>
<stop offset="1" stop-color="#FB6FBB"/>
</linearGradient>
<linearGradient id="paint6_linear_3355_318" x1="34.8067" y1="171.268" x2="132.404" y2="310.457" gradientUnits="userSpaceOnUse">
<stop offset="0.0036" stop-color="#E38DDD"/>
<stop offset="1" stop-color="#9571F6"/>
</linearGradient>
<linearGradient id="paint7_linear_3355_318" x1="207.331" y1="407.845" x2="204.538" y2="397.469" gradientUnits="userSpaceOnUse">
<stop stop-color="#EBEFF2"/>
<stop offset="0.4737" stop-color="#D2D9E1"/>
<stop offset="0.9946" stop-color="#B7C0CE"/>
</linearGradient>
<linearGradient id="paint8_linear_3355_318" x1="231.103" y1="292.863" x2="205.374" y2="442.767" gradientUnits="userSpaceOnUse">
<stop stop-color="#EBEFF2"/>
<stop offset="0.4737" stop-color="#D2D9E1"/>
<stop offset="0.9946" stop-color="#B7C0CE"/>
</linearGradient>
<linearGradient id="paint9_linear_3355_318" x1="228.746" y1="385.57" x2="224.018" y2="413.117" gradientUnits="userSpaceOnUse">
<stop stop-color="#EBEFF2"/>
<stop offset="0.4737" stop-color="#D2D9E1"/>
<stop offset="0.9946" stop-color="#B7C0CE"/>
</linearGradient>
<linearGradient id="paint10_linear_3355_318" x1="226.484" y1="360.615" x2="221.995" y2="343.941" gradientUnits="userSpaceOnUse">
<stop stop-color="#EBEFF2"/>
<stop offset="0.4737" stop-color="#D2D9E1"/>
<stop offset="0.9946" stop-color="#B7C0CE"/>
</linearGradient>
<linearGradient id="paint11_linear_3355_318" x1="311.538" y1="172.781" x2="83.8441" y2="345.585" gradientUnits="userSpaceOnUse">
<stop stop-color="#EBEFF2"/>
<stop offset="0.4737" stop-color="#D2D9E1"/>
<stop offset="0.9946" stop-color="#B7C0CE"/>
</linearGradient>
<linearGradient id="paint12_linear_3355_318" x1="68.9604" y1="255.509" x2="366.959" y2="255.509" gradientUnits="userSpaceOnUse">
<stop stop-color="#EBEFF2"/>
<stop offset="0.4737" stop-color="#D2D9E1"/>
<stop offset="0.9946" stop-color="#B7C0CE"/>
</linearGradient>
<linearGradient id="paint13_linear_3355_318" x1="306.303" y1="24.4405" x2="64.4984" y2="207.953" gradientUnits="userSpaceOnUse">
<stop stop-color="#AA80F9"/>
<stop offset="0.9964" stop-color="#6165D7"/>
</linearGradient>
<linearGradient id="paint14_linear_3355_318" x1="331.14" y1="42.9719" x2="83.615" y2="230.826" gradientUnits="userSpaceOnUse">
<stop stop-color="#AA80F9"/>
<stop offset="0.9964" stop-color="#6165D7"/>
</linearGradient>
<linearGradient id="paint15_linear_3355_318" x1="357" y1="61.6609" x2="103.541" y2="254.018" gradientUnits="userSpaceOnUse">
<stop stop-color="#AA80F9"/>
<stop offset="0.9964" stop-color="#6165D7"/>
</linearGradient>
<linearGradient id="paint16_linear_3355_318" x1="383.937" y1="80.5022" x2="124.322" y2="277.531" gradientUnits="userSpaceOnUse">
<stop stop-color="#AA80F9"/>
<stop offset="0.9964" stop-color="#6165D7"/>
</linearGradient>
<linearGradient id="paint17_linear_3355_318" x1="412.009" y1="99.4891" x2="146.005" y2="301.368" gradientUnits="userSpaceOnUse">
<stop stop-color="#AA80F9"/>
<stop offset="0.9964" stop-color="#6165D7"/>
</linearGradient>
<linearGradient id="paint18_linear_3355_318" x1="314.177" y1="46.5826" x2="80.985" y2="223.559" gradientUnits="userSpaceOnUse">
<stop stop-color="#AA80F9"/>
<stop offset="0.9964" stop-color="#6165D7"/>
</linearGradient>
<linearGradient id="paint19_linear_3355_318" x1="338.104" y1="65.5016" x2="99.4918" y2="246.591" gradientUnits="userSpaceOnUse">
<stop stop-color="#AA80F9"/>
<stop offset="0.9964" stop-color="#6165D7"/>
</linearGradient>
<linearGradient id="paint20_linear_3355_318" x1="362.993" y1="84.6015" x2="118.764" y2="269.954" gradientUnits="userSpaceOnUse">
<stop stop-color="#AA80F9"/>
<stop offset="0.9964" stop-color="#6165D7"/>
</linearGradient>
<linearGradient id="paint21_linear_3355_318" x1="388.894" y1="103.879" x2="138.84" y2="293.652" gradientUnits="userSpaceOnUse">
<stop stop-color="#AA80F9"/>
<stop offset="0.9964" stop-color="#6165D7"/>
</linearGradient>
<linearGradient id="paint22_linear_3355_318" x1="415.86" y1="123.326" x2="159.764" y2="317.685" gradientUnits="userSpaceOnUse">
<stop stop-color="#AA80F9"/>
<stop offset="0.9964" stop-color="#6165D7"/>
</linearGradient>
<linearGradient id="paint23_linear_3355_318" x1="322.356" y1="67.6213" x2="97.8946" y2="237.971" gradientUnits="userSpaceOnUse">
<stop stop-color="#AA80F9"/>
<stop offset="0.9964" stop-color="#6165D7"/>
</linearGradient>
<linearGradient id="paint24_linear_3355_318" x1="345.447" y1="86.8855" x2="115.796" y2="261.174" gradientUnits="userSpaceOnUse">
<stop stop-color="#AA80F9"/>
<stop offset="0.9964" stop-color="#6165D7"/>
</linearGradient>
<linearGradient id="paint25_linear_3355_318" x1="369.389" y1="106.398" x2="134.449" y2="284.7" gradientUnits="userSpaceOnUse">
<stop stop-color="#AA80F9"/>
<stop offset="0.9964" stop-color="#6165D7"/>
</linearGradient>
<linearGradient id="paint26_linear_3355_318" x1="394.313" y1="126.047" x2="153.829" y2="308.557" gradientUnits="userSpaceOnUse">
<stop stop-color="#AA80F9"/>
<stop offset="0.9964" stop-color="#6165D7"/>
</linearGradient>
<linearGradient id="paint27_linear_3355_318" x1="420.222" y1="145.921" x2="174.023" y2="332.769" gradientUnits="userSpaceOnUse">
<stop stop-color="#AA80F9"/>
<stop offset="0.9964" stop-color="#6165D7"/>
</linearGradient>
<linearGradient id="paint28_linear_3355_318" x1="330.827" y1="87.5847" x2="115.213" y2="251.22" gradientUnits="userSpaceOnUse">
<stop stop-color="#AA80F9"/>
<stop offset="0.9964" stop-color="#6165D7"/>
</linearGradient>
<linearGradient id="paint29_linear_3355_318" x1="353.023" y1="107.213" x2="132.544" y2="274.54" gradientUnits="userSpaceOnUse">
<stop stop-color="#AA80F9"/>
<stop offset="0.9964" stop-color="#6165D7"/>
</linearGradient>
<linearGradient id="paint30_linear_3355_318" x1="376.071" y1="127.061" x2="150.555" y2="298.211" gradientUnits="userSpaceOnUse">
<stop stop-color="#AA80F9"/>
<stop offset="0.9964" stop-color="#6165D7"/>
</linearGradient>
<linearGradient id="paint31_linear_3355_318" x1="400.162" y1="147.012" x2="169.248" y2="322.259" gradientUnits="userSpaceOnUse">
<stop stop-color="#AA80F9"/>
<stop offset="0.9964" stop-color="#6165D7"/>
</linearGradient>
<linearGradient id="paint32_linear_3355_318" x1="425.06" y1="167.281" x2="188.739" y2="346.631" gradientUnits="userSpaceOnUse">
<stop stop-color="#AA80F9"/>
<stop offset="0.9964" stop-color="#6165D7"/>
</linearGradient>
<linearGradient id="paint33_linear_3355_318" x1="342.358" y1="104.325" x2="130.601" y2="265.033" gradientUnits="userSpaceOnUse">
<stop stop-color="#AA80F9"/>
<stop offset="0.9964" stop-color="#6165D7"/>
</linearGradient>
<linearGradient id="paint34_linear_3355_318" x1="364.054" y1="124.029" x2="147.652" y2="288.263" gradientUnits="userSpaceOnUse">
<stop stop-color="#AA80F9"/>
<stop offset="0.9964" stop-color="#6165D7"/>
</linearGradient>
<linearGradient id="paint35_linear_3355_318" x1="386.559" y1="143.965" x2="165.351" y2="311.847" gradientUnits="userSpaceOnUse">
<stop stop-color="#AA80F9"/>
<stop offset="0.9964" stop-color="#6165D7"/>
</linearGradient>
<linearGradient id="paint36_linear_3355_318" x1="409.417" y1="164.505" x2="183.876" y2="335.674" gradientUnits="userSpaceOnUse">
<stop stop-color="#AA80F9"/>
<stop offset="0.9964" stop-color="#6165D7"/>
</linearGradient>
<linearGradient id="paint37_linear_3355_318" x1="434.075" y1="184.586" x2="202.849" y2="360.07" gradientUnits="userSpaceOnUse">
<stop stop-color="#AA80F9"/>
<stop offset="0.9964" stop-color="#6165D7"/>
</linearGradient>
<linearGradient id="paint38_linear_3355_318" x1="350.97" y1="122.346" x2="148.237" y2="276.206" gradientUnits="userSpaceOnUse">
<stop stop-color="#AA80F9"/>
<stop offset="0.9964" stop-color="#6165D7"/>
</linearGradient>
<linearGradient id="paint39_linear_3355_318" x1="371.858" y1="142.359" x2="164.723" y2="299.56" gradientUnits="userSpaceOnUse">
<stop stop-color="#AA80F9"/>
<stop offset="0.9964" stop-color="#6165D7"/>
</linearGradient>
<linearGradient id="paint40_linear_3355_318" x1="393.511" y1="162.616" x2="181.823" y2="323.272" gradientUnits="userSpaceOnUse">
<stop stop-color="#AA80F9"/>
<stop offset="0.9964" stop-color="#6165D7"/>
</linearGradient>
<linearGradient id="paint41_linear_3355_318" x1="416.023" y1="183.107" x2="199.55" y2="347.394" gradientUnits="userSpaceOnUse">
<stop stop-color="#AA80F9"/>
<stop offset="0.9964" stop-color="#6165D7"/>
</linearGradient>
<linearGradient id="paint42_linear_3355_318" x1="439.3" y1="203.856" x2="217.973" y2="371.828" gradientUnits="userSpaceOnUse">
<stop stop-color="#AA80F9"/>
<stop offset="0.9964" stop-color="#6165D7"/>
</linearGradient>
<linearGradient id="paint43_linear_3355_318" x1="361.536" y1="138.452" x2="165.29" y2="287.389" gradientUnits="userSpaceOnUse">
<stop stop-color="#AA80F9"/>
<stop offset="0.9964" stop-color="#6165D7"/>
</linearGradient>
<linearGradient id="paint44_linear_3355_318" x1="381.808" y1="158.634" x2="181.373" y2="310.75" gradientUnits="userSpaceOnUse">
<stop stop-color="#AA80F9"/>
<stop offset="0.9964" stop-color="#6165D7"/>
</linearGradient>
<linearGradient id="paint45_linear_3355_318" x1="402.805" y1="179.072" x2="198.04" y2="334.473" gradientUnits="userSpaceOnUse">
<stop stop-color="#AA80F9"/>
<stop offset="0.9964" stop-color="#6165D7"/>
</linearGradient>
<linearGradient id="paint46_linear_3355_318" x1="424.58" y1="199.719" x2="215.292" y2="358.553" gradientUnits="userSpaceOnUse">
<stop stop-color="#AA80F9"/>
<stop offset="0.9964" stop-color="#6165D7"/>
</linearGradient>
<linearGradient id="paint47_linear_3355_318" x1="447.131" y1="220.666" x2="233.213" y2="383.014" gradientUnits="userSpaceOnUse">
<stop stop-color="#AA80F9"/>
<stop offset="0.9964" stop-color="#6165D7"/>
</linearGradient>
<linearGradient id="paint48_linear_3355_318" x1="371.918" y1="153.719" x2="182.224" y2="297.683" gradientUnits="userSpaceOnUse">
<stop stop-color="#AA80F9"/>
<stop offset="0.9964" stop-color="#6165D7"/>
</linearGradient>
<linearGradient id="paint49_linear_3355_318" x1="391.59" y1="174.057" x2="197.909" y2="321.047" gradientUnits="userSpaceOnUse">
<stop stop-color="#AA80F9"/>
<stop offset="0.9964" stop-color="#6165D7"/>
</linearGradient>
<linearGradient id="paint50_linear_3355_318" x1="411.948" y1="194.66" x2="214.149" y2="344.776" gradientUnits="userSpaceOnUse">
<stop stop-color="#AA80F9"/>
<stop offset="0.9964" stop-color="#6165D7"/>
</linearGradient>
<linearGradient id="paint51_linear_3355_318" x1="433.01" y1="215.478" x2="230.934" y2="368.839" gradientUnits="userSpaceOnUse">
<stop stop-color="#AA80F9"/>
<stop offset="0.9964" stop-color="#6165D7"/>
</linearGradient>
<linearGradient id="paint52_linear_3355_318" x1="454.888" y1="236.606" x2="248.357" y2="393.348" gradientUnits="userSpaceOnUse">
<stop stop-color="#AA80F9"/>
<stop offset="0.9964" stop-color="#6165D7"/>
</linearGradient>
<linearGradient id="paint53_linear_3355_318" x1="107.707" y1="175.162" x2="81.1786" y2="195.295" gradientUnits="userSpaceOnUse">
<stop stop-color="#AA80F9"/>
<stop offset="0.9964" stop-color="#6165D7"/>
</linearGradient>
<linearGradient id="paint54_linear_3355_318" x1="114.348" y1="207.504" x2="85.7893" y2="229.178" gradientUnits="userSpaceOnUse">
<stop stop-color="#AA80F9"/>
<stop offset="0.9964" stop-color="#6165D7"/>
</linearGradient>
<linearGradient id="paint55_linear_3355_318" x1="119.755" y1="241.714" x2="90.5115" y2="263.908" gradientUnits="userSpaceOnUse">
<stop stop-color="#AA80F9"/>
<stop offset="0.9964" stop-color="#6165D7"/>
</linearGradient>
<linearGradient id="paint56_linear_3355_318" x1="125.302" y1="276.79" x2="95.3487" y2="299.522" gradientUnits="userSpaceOnUse">
<stop stop-color="#AA80F9"/>
<stop offset="0.9964" stop-color="#6165D7"/>
</linearGradient>
<linearGradient id="paint57_linear_3355_318" x1="130.996" y1="312.759" x2="100.305" y2="336.051" gradientUnits="userSpaceOnUse">
<stop stop-color="#AA80F9"/>
<stop offset="0.9964" stop-color="#6165D7"/>
</linearGradient>
<linearGradient id="paint58_linear_3355_318" x1="130.383" y1="188.494" x2="117.392" y2="198.353" gradientUnits="userSpaceOnUse">
<stop stop-color="#AA80F9"/>
<stop offset="0.9964" stop-color="#6165D7"/>
</linearGradient>
<linearGradient id="paint59_linear_3355_318" x1="148.094" y1="209.698" x2="121.186" y2="230.119" gradientUnits="userSpaceOnUse">
<stop stop-color="#AA80F9"/>
<stop offset="0.9964" stop-color="#6165D7"/>
</linearGradient>
<linearGradient id="paint60_linear_3355_318" x1="154.45" y1="242.872" x2="126.271" y2="264.258" gradientUnits="userSpaceOnUse">
<stop stop-color="#AA80F9"/>
<stop offset="0.9964" stop-color="#6165D7"/>
</linearGradient>
<linearGradient id="paint61_linear_3355_318" x1="160.325" y1="277.348" x2="131.474" y2="299.243" gradientUnits="userSpaceOnUse">
<stop stop-color="#AA80F9"/>
<stop offset="0.9964" stop-color="#6165D7"/>
</linearGradient>
<linearGradient id="paint62_linear_3355_318" x1="166.352" y1="312.686" x2="136.805" y2="335.111" gradientUnits="userSpaceOnUse">
<stop stop-color="#AA80F9"/>
<stop offset="0.9964" stop-color="#6165D7"/>
</linearGradient>
<linearGradient id="paint63_linear_3355_318" x1="161.249" y1="225.7" x2="155.078" y2="230.383" gradientUnits="userSpaceOnUse">
<stop stop-color="#AA80F9"/>
<stop offset="0.9964" stop-color="#6165D7"/>
</linearGradient>
<linearGradient id="paint64_linear_3355_318" x1="178.979" y1="250.927" x2="160.984" y2="264.583" gradientUnits="userSpaceOnUse">
<stop stop-color="#AA80F9"/>
<stop offset="0.9964" stop-color="#6165D7"/>
</linearGradient>
<linearGradient id="paint65_linear_3355_318" x1="194.247" y1="277.882" x2="166.501" y2="298.94" gradientUnits="userSpaceOnUse">
<stop stop-color="#AA80F9"/>
<stop offset="0.9964" stop-color="#6165D7"/>
</linearGradient>
<linearGradient id="paint66_linear_3355_318" x1="200.582" y1="312.613" x2="172.177" y2="334.171" gradientUnits="userSpaceOnUse">
<stop stop-color="#AA80F9"/>
<stop offset="0.9964" stop-color="#6165D7"/>
</linearGradient>
<linearGradient id="paint67_linear_3355_318" x1="225.966" y1="279.202" x2="200.378" y2="298.621" gradientUnits="userSpaceOnUse">
<stop stop-color="#AA80F9"/>
<stop offset="0.9964" stop-color="#6165D7"/>
</linearGradient>
<linearGradient id="paint68_linear_3355_318" x1="233.646" y1="312.551" x2="206.38" y2="333.244" gradientUnits="userSpaceOnUse">
<stop stop-color="#AA80F9"/>
<stop offset="0.9964" stop-color="#6165D7"/>
</linearGradient>
<linearGradient id="paint69_linear_3355_318" x1="259.659" y1="280.222" x2="233.81" y2="299.839" gradientUnits="userSpaceOnUse">
<stop stop-color="#AA80F9"/>
<stop offset="0.9964" stop-color="#6165D7"/>
</linearGradient>
<linearGradient id="paint70_linear_3355_318" x1="265.782" y1="312.307" x2="239.104" y2="332.554" gradientUnits="userSpaceOnUse">
<stop stop-color="#AA80F9"/>
<stop offset="0.9964" stop-color="#6165D7"/>
</linearGradient>
<linearGradient id="paint71_linear_3355_318" x1="289.431" y1="279.493" x2="264.455" y2="298.448" gradientUnits="userSpaceOnUse">
<stop stop-color="#AA80F9"/>
<stop offset="0.9964" stop-color="#6165D7"/>
</linearGradient>
<linearGradient id="paint72_linear_3355_318" x1="296.393" y1="312.313" x2="270.857" y2="331.693" gradientUnits="userSpaceOnUse">
<stop stop-color="#AA80F9"/>
<stop offset="0.9964" stop-color="#6165D7"/>
</linearGradient>
<linearGradient id="paint73_linear_3355_318" x1="319.239" y1="279.666" x2="295.092" y2="297.992" gradientUnits="userSpaceOnUse">
<stop stop-color="#AA80F9"/>
<stop offset="0.9964" stop-color="#6165D7"/>
</linearGradient>
<linearGradient id="paint74_linear_3355_318" x1="326.582" y1="312.154" x2="301.901" y2="330.885" gradientUnits="userSpaceOnUse">
<stop stop-color="#AA80F9"/>
<stop offset="0.9964" stop-color="#6165D7"/>
</linearGradient>
<linearGradient id="paint75_linear_3355_318" x1="341.596" y1="285.263" x2="324.781" y2="298.025" gradientUnits="userSpaceOnUse">
<stop stop-color="#AA80F9"/>
<stop offset="0.9964" stop-color="#6165D7"/>
</linearGradient>
<linearGradient id="paint76_linear_3355_318" x1="355.468" y1="312.058" x2="331.639" y2="330.143" gradientUnits="userSpaceOnUse">
<stop stop-color="#AA80F9"/>
<stop offset="0.9964" stop-color="#6165D7"/>
</linearGradient>
<linearGradient id="paint77_linear_3355_318" x1="67.6601" y1="105.155" x2="73.5007" y2="-14.2128" gradientUnits="userSpaceOnUse">
<stop stop-color="#311944"/>
<stop offset="1" stop-color="#A03976"/>
</linearGradient>
<linearGradient id="paint78_linear_3355_318" x1="67.6603" y1="105.154" x2="73.5009" y2="-14.2136" gradientUnits="userSpaceOnUse">
<stop stop-color="#311944"/>
<stop offset="1" stop-color="#A03976"/>
</linearGradient>
<linearGradient id="paint79_linear_3355_318" x1="67.6603" y1="105.155" x2="73.5009" y2="-14.2131" gradientUnits="userSpaceOnUse">
<stop stop-color="#311944"/>
<stop offset="1" stop-color="#A03976"/>
</linearGradient>
<linearGradient id="paint80_linear_3355_318" x1="67.6598" y1="104.887" x2="73.5003" y2="-14.4805" gradientUnits="userSpaceOnUse">
<stop stop-color="#311944"/>
<stop offset="1" stop-color="#A03976"/>
</linearGradient>
<linearGradient id="paint81_linear_3355_318" x1="40.1497" y1="103.808" x2="45.9902" y2="-15.5598" gradientUnits="userSpaceOnUse">
<stop stop-color="#311944"/>
<stop offset="1" stop-color="#A03976"/>
</linearGradient>
<linearGradient id="paint82_linear_3355_318" x1="142.565" y1="-215.909" x2="73.937" y2="81.4786" gradientUnits="userSpaceOnUse">
<stop stop-color="#FCB148"/>
<stop offset="0.0521" stop-color="#FDBA46"/>
<stop offset="0.1424" stop-color="#FFC244"/>
<stop offset="0.3183" stop-color="#FFC444"/>
<stop offset="0.4849" stop-color="#FDB946"/>
<stop offset="0.7754" stop-color="#F99C4D"/>
<stop offset="0.8658" stop-color="#F8924F"/>
<stop offset="1" stop-color="#F8924F"/>
</linearGradient>
<linearGradient id="paint83_linear_3355_318" x1="76.5584" y1="83.6371" x2="78.7485" y2="167.596" gradientUnits="userSpaceOnUse">
<stop offset="0.3183" stop-color="#FFC444"/>
<stop offset="0.5033" stop-color="#FDB946"/>
<stop offset="0.6054" stop-color="#FCB148"/>
<stop offset="0.6253" stop-color="#FBA94A"/>
<stop offset="0.6758" stop-color="#F99C4D"/>
<stop offset="0.7404" stop-color="#F8944E"/>
<stop offset="0.8658" stop-color="#F8924F"/>
<stop offset="1" stop-color="#F8924F"/>
</linearGradient>
<linearGradient id="paint84_linear_3355_318" x1="17.358" y1="71.6904" x2="80.0418" y2="71.6904" gradientUnits="userSpaceOnUse">
<stop stop-color="#FCB148"/>
<stop offset="0.0521" stop-color="#FDBA46"/>
<stop offset="0.1424" stop-color="#FFC244"/>
<stop offset="0.3183" stop-color="#FFC444"/>
<stop offset="0.4849" stop-color="#FDB946"/>
<stop offset="0.7754" stop-color="#F99C4D"/>
<stop offset="0.8658" stop-color="#F8924F"/>
<stop offset="1" stop-color="#F8924F"/>
</linearGradient>
</defs>
</svg>
